<svg width="1076" height="869" viewBox="0 0 1076 869" fill="none" xmlns="http://www.w3.org/2000/svg">
<path d="M918.968 23.736C918.52 23.736 918.064 23.776 917.6 23.856C917.152 23.936 916.744 24.08 916.376 24.288C916.008 24.48 915.704 24.752 915.464 25.104C915.24 25.44 915.128 25.872 915.128 26.4C915.128 27.04 915.296 27.56 915.632 27.96C915.968 28.344 916.376 28.64 916.856 28.848C917.24 29.008 917.648 29.144 918.08 29.256C918.512 29.368 918.952 29.472 919.4 29.568C919.864 29.664 920.312 29.76 920.744 29.856C921.192 29.952 921.624 30.072 922.04 30.216C923.016 30.552 923.792 31.032 924.368 31.656C924.96 32.28 925.256 33.104 925.256 34.128C925.256 35.088 925.088 35.88 924.752 36.504C924.432 37.128 923.992 37.64 923.432 38.04C922.888 38.44 922.248 38.736 921.512 38.928C920.792 39.104 920.024 39.192 919.208 39.192C918.392 39.192 917.608 39.112 916.856 38.952C916.12 38.792 915.448 38.528 914.84 38.16C914.232 37.792 913.712 37.312 913.28 36.72C912.848 36.128 912.544 35.408 912.368 34.56H914.552C914.712 35.104 914.96 35.552 915.296 35.904C915.632 36.256 916.016 36.536 916.448 36.744C916.88 36.952 917.344 37.096 917.84 37.176C918.352 37.256 918.856 37.296 919.352 37.296C919.832 37.296 920.296 37.248 920.744 37.152C921.208 37.04 921.616 36.872 921.968 36.648C922.32 36.424 922.6 36.136 922.808 35.784C923.016 35.432 923.12 35.008 923.12 34.512C923.12 33.76 922.92 33.2 922.52 32.832C922.12 32.464 921.584 32.184 920.912 31.992C920.464 31.848 919.992 31.728 919.496 31.632C919 31.536 918.504 31.432 918.008 31.32C917.512 31.208 917.024 31.08 916.544 30.936C916.064 30.776 915.624 30.592 915.224 30.384C914.584 30.08 914.048 29.616 913.616 28.992C913.184 28.352 912.968 27.552 912.968 26.592C912.968 25.696 913.144 24.944 913.496 24.336C913.848 23.728 914.304 23.24 914.864 22.872C915.424 22.504 916.048 22.24 916.736 22.08C917.44 21.92 918.184 21.84 918.968 21.84C919.608 21.856 920.184 21.912 920.696 22.008C921.224 22.088 921.72 22.24 922.184 22.464C922.904 22.784 923.504 23.264 923.984 23.904C924.464 24.544 924.728 25.368 924.776 26.376H922.736C922.672 25.88 922.52 25.464 922.28 25.128C922.056 24.792 921.776 24.52 921.44 24.312C921.104 24.104 920.72 23.96 920.288 23.88C919.872 23.784 919.432 23.736 918.968 23.736ZM933.832 26.208C934.84 26.208 935.712 26.368 936.448 26.688C937.184 27.008 937.8 27.456 938.296 28.032C938.808 28.608 939.184 29.296 939.424 30.096C939.68 30.88 939.808 31.744 939.808 32.688C939.808 33.632 939.68 34.504 939.424 35.304C939.184 36.088 938.808 36.768 938.296 37.344C937.8 37.904 937.176 38.344 936.424 38.664C935.672 38.984 934.792 39.144 933.784 39.144C932.776 39.144 931.896 38.984 931.144 38.664C930.408 38.344 929.784 37.904 929.272 37.344C928.776 36.768 928.4 36.088 928.144 35.304C927.904 34.504 927.784 33.632 927.784 32.688C927.784 31.744 927.904 30.88 928.144 30.096C928.4 29.296 928.776 28.608 929.272 28.032C929.784 27.456 930.424 27.008 931.192 26.688C931.96 26.368 932.84 26.208 933.832 26.208ZM933.784 37.344C934.472 37.344 935.064 37.224 935.56 36.984C936.072 36.744 936.488 36.416 936.808 36C937.144 35.568 937.384 35.072 937.528 34.512C937.688 33.952 937.768 33.344 937.768 32.688C937.768 32.048 937.688 31.448 937.528 30.888C937.384 30.312 937.144 29.816 936.808 29.4C936.488 28.968 936.072 28.632 935.56 28.392C935.064 28.152 934.472 28.032 933.784 28.032C933.096 28.032 932.504 28.152 932.008 28.392C931.512 28.632 931.096 28.968 930.76 29.4C930.44 29.816 930.2 30.312 930.04 30.888C929.896 31.448 929.824 32.048 929.824 32.688C929.824 33.344 929.896 33.952 930.04 34.512C930.2 35.072 930.44 35.568 930.76 36C931.096 36.416 931.512 36.744 932.008 36.984C932.504 37.224 933.096 37.344 933.784 37.344ZM942.538 39V22.032H944.578V39H942.538ZM948.964 21.72C949.348 21.72 949.676 21.848 949.948 22.104C950.22 22.344 950.356 22.664 950.356 23.064C950.356 23.464 950.22 23.792 949.948 24.048C949.676 24.304 949.348 24.432 948.964 24.432C948.564 24.432 948.236 24.304 947.98 24.048C947.724 23.792 947.596 23.464 947.596 23.064C947.596 22.664 947.724 22.344 947.98 22.104C948.236 21.848 948.564 21.72 948.964 21.72ZM947.956 39V26.352H949.996V39H947.956ZM964.669 39H962.725L962.629 37.104C962.197 37.824 961.597 38.344 960.829 38.664C960.077 38.984 959.285 39.144 958.453 39.144C957.493 39.128 956.661 38.96 955.957 38.64C955.253 38.304 954.677 37.848 954.229 37.272C953.781 36.696 953.445 36.024 953.221 35.256C953.013 34.472 952.909 33.624 952.909 32.712C952.909 31.8 953.021 30.952 953.245 30.168C953.469 29.368 953.813 28.68 954.277 28.104C954.741 27.512 955.325 27.048 956.029 26.712C956.733 26.376 957.573 26.208 958.549 26.208C959.285 26.208 960.029 26.344 960.781 26.616C961.533 26.888 962.149 27.328 962.629 27.936V22.032H964.669V39ZM958.717 28.032C958.029 28.032 957.445 28.16 956.965 28.416C956.485 28.656 956.093 28.984 955.789 29.4C955.501 29.816 955.285 30.312 955.141 30.888C955.013 31.448 954.949 32.064 954.949 32.736C954.949 33.408 955.013 34.016 955.141 34.56C955.269 35.088 955.485 35.56 955.789 35.976C956.093 36.392 956.485 36.728 956.965 36.984C957.445 37.224 958.037 37.344 958.741 37.344C959.557 37.344 960.229 37.152 960.757 36.768C961.285 36.384 961.709 35.904 962.029 35.328C962.253 34.928 962.413 34.496 962.509 34.032C962.605 33.552 962.653 33.08 962.653 32.616C962.653 32.04 962.597 31.512 962.485 31.032C962.389 30.552 962.205 30.104 961.933 29.688C961.613 29.224 961.189 28.832 960.661 28.512C960.133 28.192 959.485 28.032 958.717 28.032ZM969.05 21.72C969.434 21.72 969.762 21.848 970.034 22.104C970.306 22.344 970.442 22.664 970.442 23.064C970.442 23.464 970.306 23.792 970.034 24.048C969.762 24.304 969.434 24.432 969.05 24.432C968.65 24.432 968.322 24.304 968.066 24.048C967.81 23.792 967.682 23.464 967.682 23.064C967.682 22.664 967.81 22.344 968.066 22.104C968.322 21.848 968.65 21.72 969.05 21.72ZM968.042 39V26.352H970.082V39H968.042ZM976.667 26.352H980.555V28.152H976.667V34.728C976.667 35.096 976.683 35.44 976.715 35.76C976.763 36.064 976.843 36.336 976.955 36.576C977.083 36.8 977.259 36.984 977.483 37.128C977.723 37.256 978.043 37.328 978.443 37.344C978.811 37.344 979.131 37.28 979.403 37.152C979.691 37.024 979.931 36.872 980.123 36.696L981.011 38.184C980.595 38.536 980.163 38.784 979.715 38.928C979.267 39.072 978.771 39.144 978.227 39.144C977.539 39.144 976.963 39.048 976.499 38.856C976.035 38.648 975.643 38.352 975.323 37.968C975.051 37.6 974.867 37.168 974.771 36.672C974.675 36.176 974.627 35.616 974.627 34.992V28.152H972.563V26.352H974.627V22.56H976.667V26.352ZM994.103 26.352V39C994.103 40.84 993.623 42.24 992.663 43.2C991.703 44.176 990.335 44.664 988.559 44.664C987.487 44.648 986.519 44.504 985.655 44.232C984.807 43.976 984.023 43.512 983.303 42.84L984.191 41.232C984.815 41.728 985.479 42.12 986.183 42.408C986.903 42.696 987.655 42.84 988.439 42.84C989.095 42.84 989.655 42.736 990.119 42.528C990.583 42.336 990.959 42.056 991.247 41.688C991.551 41.336 991.767 40.912 991.895 40.416C992.039 39.92 992.111 39.384 992.111 38.808V37.296C991.903 37.616 991.639 37.904 991.319 38.16C991.015 38.4 990.679 38.6 990.311 38.76C989.959 38.904 989.575 39.008 989.159 39.072C988.759 39.152 988.351 39.192 987.935 39.192C986.975 39.176 986.175 39.024 985.535 38.736C984.911 38.448 984.407 38.048 984.023 37.536C983.655 37.024 983.391 36.416 983.231 35.712C983.071 34.992 982.991 34.2 982.991 33.336V26.352H985.031V32.76C985.031 33.336 985.063 33.904 985.127 34.464C985.207 35.024 985.359 35.52 985.583 35.952C985.807 36.384 986.135 36.736 986.567 37.008C986.999 37.264 987.575 37.392 988.295 37.392C989.015 37.392 989.623 37.24 990.119 36.936C990.631 36.632 991.023 36.248 991.295 35.784C991.599 35.304 991.799 34.776 991.895 34.2C992.007 33.624 992.063 33.032 992.063 32.424V26.352H994.103Z" fill="#8F8F8F"/>
<circle cx="463" cy="36" r="5" fill="#FF3C00"/>
<path d="M463 56V81.5" stroke="#DADADA"/>
<path d="M916 53V78.5" stroke="#DADADA"/>
<path d="M465.088 97.032H471.112C472.424 97.032 473.576 97.24 474.568 97.656C475.576 98.056 476.416 98.632 477.088 99.384C477.76 100.12 478.264 101.016 478.6 102.072C478.936 103.112 479.104 104.264 479.104 105.528C479.088 106.792 478.912 107.944 478.576 108.984C478.24 110.024 477.736 110.92 477.064 111.672C476.408 112.408 475.584 112.984 474.592 113.4C473.6 113.8 472.44 114 471.112 114H465.088V97.032ZM467.176 98.928V112.104H470.968C471.832 112.104 472.656 111.976 473.44 111.72C474.24 111.448 474.92 110.976 475.48 110.304C475.992 109.712 476.368 109.016 476.608 108.216C476.848 107.4 476.968 106.504 476.968 105.528C476.968 104.52 476.848 103.624 476.608 102.84C476.368 102.056 476.008 101.376 475.528 100.8C475.048 100.224 474.44 99.768 473.704 99.432C472.968 99.096 472.096 98.928 471.088 98.928H467.176ZM483.561 96.72C483.945 96.72 484.273 96.848 484.545 97.104C484.817 97.344 484.953 97.664 484.953 98.064C484.953 98.464 484.817 98.792 484.545 99.048C484.273 99.304 483.945 99.432 483.561 99.432C483.161 99.432 482.833 99.304 482.577 99.048C482.321 98.792 482.193 98.464 482.193 98.064C482.193 97.664 482.321 97.344 482.577 97.104C482.833 96.848 483.161 96.72 483.561 96.72ZM484.593 101.352V114.24C484.593 115.648 484.289 116.68 483.681 117.336C483.073 117.992 482.057 118.32 480.633 118.32H479.529V116.544H480.393C481.257 116.544 481.833 116.328 482.121 115.896C482.409 115.464 482.553 114.84 482.553 114.024V101.352H484.593ZM496.303 112.392C496.031 112.76 495.719 113.056 495.367 113.28C495.015 113.504 494.647 113.68 494.263 113.808C493.895 113.936 493.519 114.024 493.135 114.072C492.767 114.12 492.399 114.144 492.031 114.144C491.439 114.144 490.879 114.072 490.351 113.928C489.823 113.784 489.343 113.552 488.911 113.232C488.495 112.912 488.159 112.512 487.903 112.032C487.663 111.552 487.543 111.008 487.543 110.4C487.543 109.68 487.671 109.08 487.927 108.6C488.199 108.104 488.559 107.704 489.007 107.4C489.455 107.096 489.967 106.888 490.543 106.776C491.135 106.648 491.759 106.584 492.415 106.584H496.135C496.135 105.512 495.903 104.664 495.439 104.04C494.975 103.4 494.191 103.064 493.087 103.032C492.415 103.032 491.823 103.144 491.311 103.368C490.799 103.592 490.447 103.96 490.255 104.472H488.071C488.183 103.896 488.407 103.408 488.743 103.008C489.079 102.592 489.479 102.256 489.943 102C490.407 101.728 490.911 101.528 491.455 101.4C491.999 101.272 492.543 101.208 493.087 101.208C494.031 101.208 494.823 101.368 495.463 101.688C496.119 101.992 496.647 102.4 497.047 102.912C497.447 103.408 497.727 104.016 497.887 104.736C498.047 105.456 498.127 106.264 498.127 107.16V114H496.423L496.303 112.392ZM493.903 108.288C493.519 108.288 493.071 108.288 492.559 108.288C492.063 108.288 491.583 108.344 491.119 108.456C490.655 108.552 490.279 108.752 489.991 109.056C489.719 109.36 489.583 109.76 489.583 110.256C489.583 110.624 489.655 110.936 489.799 111.192C489.943 111.448 490.135 111.664 490.375 111.84C490.631 112.016 490.919 112.144 491.239 112.224C491.559 112.304 491.887 112.344 492.223 112.344C493.423 112.344 494.367 112.056 495.055 111.48C495.759 110.888 496.119 110.032 496.135 108.912V108.288H493.903ZM501.288 114V101.352H503.256L503.352 103.272C503.56 102.92 503.816 102.616 504.12 102.36C504.44 102.104 504.784 101.888 505.152 101.712C505.52 101.536 505.904 101.408 506.304 101.328C506.72 101.248 507.12 101.208 507.504 101.208C508.416 101.208 509.184 101.36 509.808 101.664C510.432 101.952 510.928 102.36 511.296 102.888C511.664 103.4 511.928 104.016 512.088 104.736C512.248 105.44 512.328 106.2 512.328 107.016V114H510.288V107.568C510.288 106.976 510.248 106.408 510.168 105.864C510.104 105.32 509.96 104.84 509.736 104.424C509.528 103.992 509.224 103.648 508.824 103.392C508.424 103.136 507.888 103.008 507.216 103.008C506.576 103.008 506 103.168 505.488 103.488C504.976 103.792 504.568 104.152 504.264 104.568C503.896 105.096 503.648 105.68 503.52 106.32C503.392 106.944 503.328 107.576 503.328 108.216V114H501.288ZM526.747 113.904C526.747 115.696 526.267 117.104 525.307 118.128C524.347 119.152 522.899 119.664 520.963 119.664C520.323 119.664 519.707 119.592 519.115 119.448C518.539 119.304 518.011 119.072 517.531 118.752C517.067 118.448 516.667 118.056 516.331 117.576C516.011 117.112 515.787 116.552 515.659 115.896H517.771C517.867 116.264 518.027 116.568 518.251 116.808C518.491 117.064 518.763 117.264 519.067 117.408C519.371 117.568 519.699 117.68 520.051 117.744C520.403 117.808 520.747 117.84 521.083 117.84C521.723 117.84 522.275 117.736 522.739 117.528C523.203 117.336 523.579 117.064 523.867 116.712C524.155 116.36 524.363 115.936 524.491 115.44C524.635 114.96 524.707 114.432 524.707 113.856V112.104C524.291 112.84 523.699 113.368 522.931 113.688C522.163 113.992 521.363 114.144 520.531 114.144C519.571 114.128 518.739 113.96 518.035 113.64C517.331 113.304 516.755 112.848 516.307 112.272C515.859 111.696 515.523 111.024 515.299 110.256C515.091 109.472 514.987 108.624 514.987 107.712C514.987 106.8 515.099 105.952 515.323 105.168C515.547 104.368 515.891 103.68 516.355 103.104C516.819 102.512 517.403 102.048 518.107 101.712C518.811 101.376 519.651 101.208 520.627 101.208C521.363 101.208 522.107 101.344 522.859 101.616C523.611 101.888 524.227 102.328 524.707 102.936L524.803 101.352H526.747V113.904ZM520.795 103.032C520.107 103.032 519.523 103.16 519.043 103.416C518.563 103.656 518.171 103.984 517.867 104.4C517.579 104.816 517.363 105.312 517.219 105.888C517.091 106.448 517.027 107.048 517.027 107.688C517.027 108.392 517.091 109.016 517.219 109.56C517.347 110.088 517.563 110.56 517.867 110.976C518.171 111.392 518.563 111.728 519.043 111.984C519.523 112.224 520.115 112.344 520.819 112.344C521.635 112.344 522.307 112.152 522.835 111.768C523.363 111.384 523.787 110.904 524.107 110.328C524.331 109.928 524.491 109.496 524.587 109.032C524.683 108.552 524.731 108.08 524.731 107.616C524.731 107.04 524.675 106.512 524.563 106.032C524.467 105.552 524.283 105.104 524.011 104.688C523.691 104.224 523.267 103.832 522.739 103.512C522.211 103.192 521.563 103.032 520.795 103.032ZM535.52 101.208C536.528 101.208 537.4 101.368 538.136 101.688C538.872 102.008 539.488 102.456 539.984 103.032C540.496 103.608 540.872 104.296 541.112 105.096C541.368 105.88 541.496 106.744 541.496 107.688C541.496 108.632 541.368 109.504 541.112 110.304C540.872 111.088 540.496 111.768 539.984 112.344C539.488 112.904 538.864 113.344 538.112 113.664C537.36 113.984 536.48 114.144 535.472 114.144C534.464 114.144 533.584 113.984 532.832 113.664C532.096 113.344 531.472 112.904 530.96 112.344C530.464 111.768 530.088 111.088 529.832 110.304C529.592 109.504 529.472 108.632 529.472 107.688C529.472 106.744 529.592 105.88 529.832 105.096C530.088 104.296 530.464 103.608 530.96 103.032C531.472 102.456 532.112 102.008 532.88 101.688C533.648 101.368 534.528 101.208 535.52 101.208ZM535.472 112.344C536.16 112.344 536.752 112.224 537.248 111.984C537.76 111.744 538.176 111.416 538.496 111C538.832 110.568 539.072 110.072 539.216 109.512C539.376 108.952 539.456 108.344 539.456 107.688C539.456 107.048 539.376 106.448 539.216 105.888C539.072 105.312 538.832 104.816 538.496 104.4C538.176 103.968 537.76 103.632 537.248 103.392C536.752 103.152 536.16 103.032 535.472 103.032C534.784 103.032 534.192 103.152 533.696 103.392C533.2 103.632 532.784 103.968 532.448 104.4C532.128 104.816 531.888 105.312 531.728 105.888C531.584 106.448 531.512 107.048 531.512 107.688C531.512 108.344 531.584 108.952 531.728 109.512C531.888 110.072 532.128 110.568 532.448 111C532.784 111.416 533.2 111.744 533.696 111.984C534.192 112.224 534.784 112.344 535.472 112.344ZM550.969 118.032L543.553 94.776H545.713L553.129 118.032H550.969ZM556.143 114V97.032H567.543V98.928H558.231V105.288H566.367V107.208H558.231V114H556.143ZM570.03 114V97.032H572.07V114H570.03ZM583.608 112.392C583.336 112.76 583.024 113.056 582.672 113.28C582.32 113.504 581.952 113.68 581.568 113.808C581.2 113.936 580.824 114.024 580.44 114.072C580.072 114.12 579.704 114.144 579.336 114.144C578.744 114.144 578.184 114.072 577.656 113.928C577.128 113.784 576.648 113.552 576.216 113.232C575.8 112.912 575.464 112.512 575.208 112.032C574.968 111.552 574.848 111.008 574.848 110.4C574.848 109.68 574.976 109.08 575.232 108.6C575.504 108.104 575.864 107.704 576.312 107.4C576.76 107.096 577.272 106.888 577.848 106.776C578.44 106.648 579.064 106.584 579.72 106.584H583.44C583.44 105.512 583.208 104.664 582.744 104.04C582.28 103.4 581.496 103.064 580.392 103.032C579.72 103.032 579.128 103.144 578.616 103.368C578.104 103.592 577.752 103.96 577.56 104.472H575.376C575.488 103.896 575.712 103.408 576.048 103.008C576.384 102.592 576.784 102.256 577.248 102C577.712 101.728 578.216 101.528 578.76 101.4C579.304 101.272 579.848 101.208 580.392 101.208C581.336 101.208 582.128 101.368 582.768 101.688C583.424 101.992 583.952 102.4 584.352 102.912C584.752 103.408 585.032 104.016 585.192 104.736C585.352 105.456 585.432 106.264 585.432 107.16V114H583.728L583.608 112.392ZM581.208 108.288C580.824 108.288 580.376 108.288 579.864 108.288C579.368 108.288 578.888 108.344 578.424 108.456C577.96 108.552 577.584 108.752 577.296 109.056C577.024 109.36 576.888 109.76 576.888 110.256C576.888 110.624 576.96 110.936 577.104 111.192C577.248 111.448 577.44 111.664 577.68 111.84C577.936 112.016 578.224 112.144 578.544 112.224C578.864 112.304 579.192 112.344 579.528 112.344C580.728 112.344 581.672 112.056 582.36 111.48C583.064 110.888 583.424 110.032 583.44 108.912V108.288H581.208ZM593.104 103.032C592.816 103.032 592.52 103.056 592.216 103.104C591.928 103.136 591.64 103.216 591.352 103.344C591.08 103.456 590.84 103.632 590.632 103.872C590.44 104.096 590.336 104.4 590.32 104.784C590.32 105.328 590.52 105.736 590.92 106.008C591.336 106.28 591.872 106.48 592.528 106.608C592.8 106.672 593.096 106.736 593.416 106.8C593.736 106.848 594.048 106.904 594.352 106.968C594.672 107.016 594.968 107.072 595.24 107.136C595.528 107.2 595.768 107.264 595.96 107.328C597.496 107.808 598.264 108.84 598.264 110.424C598.248 111.192 598.08 111.816 597.76 112.296C597.456 112.76 597.064 113.128 596.584 113.4C596.12 113.672 595.584 113.864 594.976 113.976C594.384 114.088 593.792 114.144 593.2 114.144C592.624 114.144 592.04 114.088 591.448 113.976C590.856 113.864 590.312 113.672 589.816 113.4C589.336 113.112 588.92 112.744 588.568 112.296C588.232 111.832 588.016 111.256 587.92 110.568H589.984C590.112 110.952 590.312 111.256 590.584 111.48C590.856 111.704 591.144 111.88 591.448 112.008C591.768 112.136 592.064 112.224 592.336 112.272C592.624 112.32 592.944 112.344 593.296 112.344C593.552 112.344 593.848 112.328 594.184 112.296C594.52 112.264 594.84 112.192 595.144 112.08C595.448 111.952 595.704 111.768 595.912 111.528C596.12 111.288 596.224 110.952 596.224 110.52C596.224 110.04 596.064 109.68 595.744 109.44C595.44 109.2 595.016 109.024 594.472 108.912C594.088 108.832 593.688 108.76 593.272 108.696C592.872 108.616 592.464 108.536 592.048 108.456C591.648 108.36 591.256 108.256 590.872 108.144C590.488 108.016 590.128 107.848 589.792 107.64C589.344 107.368 588.984 107 588.712 106.536C588.44 106.072 588.304 105.504 588.304 104.832C588.336 104.128 588.496 103.552 588.784 103.104C589.072 102.64 589.44 102.264 589.888 101.976C590.368 101.688 590.88 101.488 591.424 101.376C591.968 101.264 592.544 101.208 593.152 101.208C594.448 101.208 595.48 101.488 596.248 102.048C596.712 102.368 597.072 102.752 597.328 103.2C597.584 103.648 597.744 104.12 597.808 104.616H595.912C595.8 104.152 595.496 103.776 595 103.488C594.504 103.2 593.872 103.048 593.104 103.032ZM600.803 114V97.032H602.843V106.8H605.051L608.843 101.352H611.147L606.923 107.376L611.507 114H609.107L605.291 108.576H602.843V114H600.803ZM471.112 125.368C470.264 126.472 469.552 127.544 468.976 128.584C468.4 129.608 467.936 130.632 467.584 131.656C467.232 132.664 466.976 133.672 466.816 134.68C466.672 135.688 466.6 136.712 466.6 137.752C466.6 138.808 466.68 139.84 466.84 140.848C467 141.84 467.256 142.84 467.608 143.848C467.976 144.856 468.44 145.872 469 146.896C469.576 147.92 470.264 148.984 471.064 150.088H468.856C468.136 149.24 467.504 148.304 466.96 147.28C466.432 146.272 465.984 145.232 465.616 144.16C465.264 143.072 465 141.984 464.824 140.896C464.648 139.808 464.56 138.76 464.56 137.752C464.56 136.744 464.648 135.696 464.824 134.608C465.016 133.504 465.288 132.416 465.64 131.344C466.008 130.256 466.464 129.2 467.008 128.176C467.552 127.152 468.184 126.216 468.904 125.368H471.112ZM472.471 128.032H478.351C480.223 128.032 481.687 128.496 482.743 129.424C483.799 130.336 484.327 131.752 484.327 133.672C484.327 134.648 484.151 135.504 483.799 136.24C483.463 136.976 482.991 137.584 482.383 138.064C481.871 138.48 481.231 138.808 480.463 139.048C479.695 139.288 478.847 139.408 477.919 139.408H474.559V145H472.471V128.032ZM477.823 137.512C478.431 137.512 479.023 137.44 479.599 137.296C480.175 137.136 480.647 136.888 481.015 136.552C481.383 136.232 481.671 135.84 481.879 135.376C482.087 134.912 482.191 134.312 482.191 133.576C482.191 131.144 480.879 129.928 478.255 129.928H474.559V137.512H477.823ZM498.22 132.352V145C498.22 146.84 497.74 148.24 496.78 149.2C495.82 150.176 494.452 150.664 492.676 150.664C491.604 150.648 490.636 150.504 489.772 150.232C488.924 149.976 488.14 149.512 487.42 148.84L488.308 147.232C488.932 147.728 489.596 148.12 490.3 148.408C491.02 148.696 491.772 148.84 492.556 148.84C493.212 148.84 493.772 148.736 494.236 148.528C494.7 148.336 495.076 148.056 495.364 147.688C495.668 147.336 495.884 146.912 496.012 146.416C496.156 145.92 496.228 145.384 496.228 144.808V143.296C496.02 143.616 495.756 143.904 495.436 144.16C495.132 144.4 494.796 144.6 494.428 144.76C494.076 144.904 493.692 145.008 493.276 145.072C492.876 145.152 492.468 145.192 492.052 145.192C491.092 145.176 490.292 145.024 489.652 144.736C489.028 144.448 488.524 144.048 488.14 143.536C487.772 143.024 487.508 142.416 487.348 141.712C487.188 140.992 487.108 140.2 487.108 139.336V132.352H489.148V138.76C489.148 139.336 489.18 139.904 489.244 140.464C489.324 141.024 489.476 141.52 489.7 141.952C489.924 142.384 490.252 142.736 490.684 143.008C491.116 143.264 491.692 143.392 492.412 143.392C493.132 143.392 493.74 143.24 494.236 142.936C494.748 142.632 495.14 142.248 495.412 141.784C495.716 141.304 495.916 140.776 496.012 140.2C496.124 139.624 496.18 139.032 496.18 138.424V132.352H498.22ZM504.62 132.352H508.004V134.152H504.62V140.704C504.62 141.568 504.772 142.208 505.076 142.624C505.396 143.024 506.036 143.224 506.996 143.224H507.932V145H506.564C505.124 145 504.1 144.672 503.492 144.016C502.884 143.36 502.58 142.328 502.58 140.92V134.152H500.516V132.352H502.58V128.584H504.62V132.352ZM510.311 145V128.032H512.351V134.296C512.559 133.976 512.823 133.68 513.143 133.408C513.463 133.136 513.799 132.912 514.151 132.736C514.503 132.56 514.887 132.432 515.303 132.352C515.735 132.256 516.151 132.208 516.551 132.208C517.463 132.208 518.223 132.36 518.831 132.664C519.455 132.952 519.951 133.36 520.319 133.888C520.703 134.4 520.967 135.016 521.111 135.736C521.271 136.44 521.351 137.208 521.351 138.04V145H519.311V138.664C519.311 138.088 519.279 137.528 519.215 136.984C519.151 136.424 519.007 135.928 518.783 135.496C518.559 135.064 518.239 134.712 517.823 134.44C517.407 134.152 516.839 134.008 516.119 134.008C515.527 134.008 514.975 134.16 514.463 134.464C513.967 134.752 513.567 135.12 513.263 135.568C512.895 136.064 512.647 136.616 512.519 137.224C512.407 137.832 512.351 138.456 512.351 139.096V145H510.311ZM530.059 132.208C531.067 132.208 531.939 132.368 532.675 132.688C533.411 133.008 534.027 133.456 534.523 134.032C535.035 134.608 535.411 135.296 535.651 136.096C535.907 136.88 536.035 137.744 536.035 138.688C536.035 139.632 535.907 140.504 535.651 141.304C535.411 142.088 535.035 142.768 534.523 143.344C534.027 143.904 533.403 144.344 532.651 144.664C531.899 144.984 531.019 145.144 530.011 145.144C529.003 145.144 528.123 144.984 527.371 144.664C526.635 144.344 526.011 143.904 525.499 143.344C525.003 142.768 524.627 142.088 524.371 141.304C524.131 140.504 524.011 139.632 524.011 138.688C524.011 137.744 524.131 136.88 524.371 136.096C524.627 135.296 525.003 134.608 525.499 134.032C526.011 133.456 526.651 133.008 527.419 132.688C528.187 132.368 529.067 132.208 530.059 132.208ZM530.011 143.344C530.699 143.344 531.291 143.224 531.787 142.984C532.299 142.744 532.715 142.416 533.035 142C533.371 141.568 533.611 141.072 533.755 140.512C533.915 139.952 533.995 139.344 533.995 138.688C533.995 138.048 533.915 137.448 533.755 136.888C533.611 136.312 533.371 135.816 533.035 135.4C532.715 134.968 532.299 134.632 531.787 134.392C531.291 134.152 530.699 134.032 530.011 134.032C529.323 134.032 528.731 134.152 528.235 134.392C527.739 134.632 527.323 134.968 526.987 135.4C526.667 135.816 526.427 136.312 526.267 136.888C526.123 137.448 526.051 138.048 526.051 138.688C526.051 139.344 526.123 139.952 526.267 140.512C526.427 141.072 526.667 141.568 526.987 142C527.323 142.416 527.739 142.744 528.235 142.984C528.731 143.224 529.323 143.344 530.011 143.344ZM538.764 145V132.352H540.732L540.828 134.272C541.036 133.92 541.292 133.616 541.596 133.36C541.916 133.104 542.26 132.888 542.628 132.712C542.996 132.536 543.38 132.408 543.78 132.328C544.196 132.248 544.596 132.208 544.98 132.208C545.892 132.208 546.66 132.36 547.284 132.664C547.908 132.952 548.404 133.36 548.772 133.888C549.14 134.4 549.404 135.016 549.564 135.736C549.724 136.44 549.804 137.2 549.804 138.016V145H547.764V138.568C547.764 137.976 547.724 137.408 547.644 136.864C547.58 136.32 547.436 135.84 547.212 135.424C547.004 134.992 546.7 134.648 546.3 134.392C545.9 134.136 545.364 134.008 544.692 134.008C544.052 134.008 543.476 134.168 542.964 134.488C542.452 134.792 542.044 135.152 541.74 135.568C541.372 136.096 541.124 136.68 540.996 137.32C540.868 137.944 540.804 138.576 540.804 139.216V145H538.764ZM554.408 145.048C553.992 145.016 553.656 144.88 553.4 144.64C553.144 144.4 553.016 144.08 553.016 143.68C553.032 143.264 553.176 142.936 553.448 142.696C553.736 142.44 554.064 142.312 554.432 142.312C554.896 142.312 555.264 142.48 555.536 142.816C555.824 143.152 555.968 143.624 555.968 144.232C555.968 144.568 555.896 144.936 555.752 145.336C555.624 145.752 555.448 146.128 555.224 146.464C555 146.8 554.736 147.096 554.432 147.352C554.144 147.608 553.84 147.792 553.52 147.904L552.944 147.112C553.264 146.888 553.56 146.584 553.832 146.2C554.12 145.816 554.312 145.432 554.408 145.048ZM566.456 140.32C566.552 141.232 566.856 141.952 567.368 142.48C567.88 143.008 568.664 143.28 569.72 143.296C570.28 143.296 570.744 143.208 571.112 143.032C571.496 142.84 571.8 142.584 572.024 142.264C572.264 141.928 572.432 141.536 572.528 141.088C572.624 140.624 572.672 140.12 572.672 139.576V128.032H574.76V139.144C574.76 140.04 574.672 140.856 574.496 141.592C574.32 142.328 574.032 142.968 573.632 143.512C573.232 144.04 572.712 144.456 572.072 144.76C571.432 145.048 570.648 145.192 569.72 145.192C568.056 145.192 566.768 144.8 565.856 144.016C564.944 143.232 564.44 142 564.344 140.32H566.456ZM584.687 129.736C584.239 129.736 583.783 129.776 583.319 129.856C582.871 129.936 582.463 130.08 582.095 130.288C581.727 130.48 581.423 130.752 581.183 131.104C580.959 131.44 580.847 131.872 580.847 132.4C580.847 133.04 581.015 133.56 581.351 133.96C581.687 134.344 582.095 134.64 582.575 134.848C582.959 135.008 583.367 135.144 583.799 135.256C584.231 135.368 584.671 135.472 585.119 135.568C585.583 135.664 586.031 135.76 586.463 135.856C586.911 135.952 587.343 136.072 587.759 136.216C588.735 136.552 589.511 137.032 590.087 137.656C590.679 138.28 590.975 139.104 590.975 140.128C590.975 141.088 590.807 141.88 590.471 142.504C590.151 143.128 589.711 143.64 589.151 144.04C588.607 144.44 587.967 144.736 587.231 144.928C586.511 145.104 585.743 145.192 584.927 145.192C584.111 145.192 583.327 145.112 582.575 144.952C581.839 144.792 581.167 144.528 580.559 144.16C579.951 143.792 579.431 143.312 578.999 142.72C578.567 142.128 578.263 141.408 578.087 140.56H580.271C580.431 141.104 580.679 141.552 581.015 141.904C581.351 142.256 581.735 142.536 582.167 142.744C582.599 142.952 583.063 143.096 583.559 143.176C584.071 143.256 584.575 143.296 585.071 143.296C585.551 143.296 586.015 143.248 586.463 143.152C586.927 143.04 587.335 142.872 587.687 142.648C588.039 142.424 588.319 142.136 588.527 141.784C588.735 141.432 588.839 141.008 588.839 140.512C588.839 139.76 588.639 139.2 588.239 138.832C587.839 138.464 587.303 138.184 586.631 137.992C586.183 137.848 585.711 137.728 585.215 137.632C584.719 137.536 584.223 137.432 583.727 137.32C583.231 137.208 582.743 137.08 582.263 136.936C581.783 136.776 581.343 136.592 580.943 136.384C580.303 136.08 579.767 135.616 579.335 134.992C578.903 134.352 578.687 133.552 578.687 132.592C578.687 131.696 578.863 130.944 579.215 130.336C579.567 129.728 580.023 129.24 580.583 128.872C581.143 128.504 581.767 128.24 582.455 128.08C583.159 127.92 583.903 127.84 584.687 127.84C585.327 127.856 585.903 127.912 586.415 128.008C586.943 128.088 587.439 128.24 587.903 128.464C588.623 128.784 589.223 129.264 589.703 129.904C590.183 130.544 590.447 131.368 590.495 132.376H588.455C588.391 131.88 588.239 131.464 587.999 131.128C587.775 130.792 587.495 130.52 587.159 130.312C586.823 130.104 586.439 129.96 586.007 129.88C585.591 129.784 585.151 129.736 584.687 129.736ZM594.72 145.048C594.304 145.016 593.968 144.88 593.712 144.64C593.456 144.4 593.328 144.08 593.328 143.68C593.344 143.264 593.488 142.936 593.76 142.696C594.048 142.44 594.376 142.312 594.744 142.312C595.208 142.312 595.576 142.48 595.848 142.816C596.136 143.152 596.28 143.624 596.28 144.232C596.28 144.568 596.208 144.936 596.064 145.336C595.936 145.752 595.76 146.128 595.536 146.464C595.312 146.8 595.048 147.096 594.744 147.352C594.456 147.608 594.152 147.792 593.832 147.904L593.256 147.112C593.576 146.888 593.872 146.584 594.144 146.2C594.432 145.816 594.624 145.432 594.72 145.048ZM612.576 129.736C611.568 129.736 610.704 129.92 609.984 130.288C609.28 130.656 608.696 131.152 608.232 131.776C607.784 132.4 607.456 133.12 607.248 133.936C607.04 134.736 606.936 135.576 606.936 136.456C606.936 137.4 607.048 138.288 607.272 139.12C607.496 139.952 607.84 140.68 608.304 141.304C608.768 141.912 609.36 142.4 610.08 142.768C610.8 143.12 611.656 143.296 612.648 143.296C613.848 143.296 614.856 143.048 615.672 142.552C616.488 142.056 617.016 141.392 617.256 140.56H619.536C619.168 141.968 618.392 143.096 617.208 143.944C616.024 144.776 614.488 145.192 612.6 145.192C611.288 145.192 610.144 144.976 609.168 144.544C608.192 144.112 607.376 143.512 606.72 142.744C606.08 141.976 605.6 141.064 605.28 140.008C604.96 138.952 604.8 137.792 604.8 136.528C604.8 135.28 604.96 134.128 605.28 133.072C605.6 132.016 606.088 131.104 606.744 130.336C607.4 129.552 608.216 128.944 609.192 128.512C610.168 128.064 611.32 127.84 612.648 127.84C613.576 127.84 614.408 127.952 615.144 128.176C615.896 128.4 616.544 128.72 617.088 129.136C617.648 129.536 618.104 130.024 618.456 130.6C618.808 131.16 619.064 131.784 619.224 132.472H617.112C616.872 131.64 616.352 130.976 615.552 130.48C614.768 129.984 613.776 129.736 612.576 129.736ZM628.632 129.736C628.184 129.736 627.728 129.776 627.264 129.856C626.816 129.936 626.408 130.08 626.04 130.288C625.672 130.48 625.368 130.752 625.128 131.104C624.904 131.44 624.792 131.872 624.792 132.4C624.792 133.04 624.96 133.56 625.296 133.96C625.632 134.344 626.04 134.64 626.52 134.848C626.904 135.008 627.312 135.144 627.744 135.256C628.176 135.368 628.616 135.472 629.064 135.568C629.528 135.664 629.976 135.76 630.408 135.856C630.856 135.952 631.288 136.072 631.704 136.216C632.68 136.552 633.456 137.032 634.032 137.656C634.624 138.28 634.92 139.104 634.92 140.128C634.92 141.088 634.752 141.88 634.416 142.504C634.096 143.128 633.656 143.64 633.096 144.04C632.552 144.44 631.912 144.736 631.176 144.928C630.456 145.104 629.688 145.192 628.872 145.192C628.056 145.192 627.272 145.112 626.52 144.952C625.784 144.792 625.112 144.528 624.504 144.16C623.896 143.792 623.376 143.312 622.944 142.72C622.512 142.128 622.208 141.408 622.032 140.56H624.216C624.376 141.104 624.624 141.552 624.96 141.904C625.296 142.256 625.68 142.536 626.112 142.744C626.544 142.952 627.008 143.096 627.504 143.176C628.016 143.256 628.52 143.296 629.016 143.296C629.496 143.296 629.96 143.248 630.408 143.152C630.872 143.04 631.28 142.872 631.632 142.648C631.984 142.424 632.264 142.136 632.472 141.784C632.68 141.432 632.784 141.008 632.784 140.512C632.784 139.76 632.584 139.2 632.184 138.832C631.784 138.464 631.248 138.184 630.576 137.992C630.128 137.848 629.656 137.728 629.16 137.632C628.664 137.536 628.168 137.432 627.672 137.32C627.176 137.208 626.688 137.08 626.208 136.936C625.728 136.776 625.288 136.592 624.888 136.384C624.248 136.08 623.712 135.616 623.28 134.992C622.848 134.352 622.632 133.552 622.632 132.592C622.632 131.696 622.808 130.944 623.16 130.336C623.512 129.728 623.968 129.24 624.528 128.872C625.088 128.504 625.712 128.24 626.4 128.08C627.104 127.92 627.848 127.84 628.632 127.84C629.272 127.856 629.848 127.912 630.36 128.008C630.888 128.088 631.384 128.24 631.848 128.464C632.568 128.784 633.168 129.264 633.648 129.904C634.128 130.544 634.392 131.368 634.44 132.376H632.4C632.336 131.88 632.184 131.464 631.944 131.128C631.72 130.792 631.44 130.52 631.104 130.312C630.768 130.104 630.384 129.96 629.952 129.88C629.536 129.784 629.096 129.736 628.632 129.736ZM644.406 129.736C643.958 129.736 643.502 129.776 643.038 129.856C642.59 129.936 642.182 130.08 641.814 130.288C641.446 130.48 641.142 130.752 640.902 131.104C640.678 131.44 640.566 131.872 640.566 132.4C640.566 133.04 640.734 133.56 641.07 133.96C641.406 134.344 641.814 134.64 642.294 134.848C642.678 135.008 643.086 135.144 643.518 135.256C643.95 135.368 644.39 135.472 644.838 135.568C645.302 135.664 645.75 135.76 646.182 135.856C646.63 135.952 647.062 136.072 647.478 136.216C648.454 136.552 649.23 137.032 649.806 137.656C650.398 138.28 650.694 139.104 650.694 140.128C650.694 141.088 650.526 141.88 650.19 142.504C649.87 143.128 649.43 143.64 648.87 144.04C648.326 144.44 647.686 144.736 646.95 144.928C646.23 145.104 645.462 145.192 644.646 145.192C643.83 145.192 643.046 145.112 642.294 144.952C641.558 144.792 640.886 144.528 640.278 144.16C639.67 143.792 639.15 143.312 638.718 142.72C638.286 142.128 637.982 141.408 637.806 140.56H639.99C640.15 141.104 640.398 141.552 640.734 141.904C641.07 142.256 641.454 142.536 641.886 142.744C642.318 142.952 642.782 143.096 643.278 143.176C643.79 143.256 644.294 143.296 644.79 143.296C645.27 143.296 645.734 143.248 646.182 143.152C646.646 143.04 647.054 142.872 647.406 142.648C647.758 142.424 648.038 142.136 648.246 141.784C648.454 141.432 648.557 141.008 648.557 140.512C648.557 139.76 648.358 139.2 647.958 138.832C647.558 138.464 647.022 138.184 646.35 137.992C645.902 137.848 645.43 137.728 644.934 137.632C644.438 137.536 643.942 137.432 643.446 137.32C642.95 137.208 642.462 137.08 641.982 136.936C641.502 136.776 641.062 136.592 640.662 136.384C640.022 136.08 639.486 135.616 639.054 134.992C638.622 134.352 638.406 133.552 638.406 132.592C638.406 131.696 638.582 130.944 638.934 130.336C639.286 129.728 639.742 129.24 640.302 128.872C640.862 128.504 641.486 128.24 642.174 128.08C642.878 127.92 643.622 127.84 644.406 127.84C645.046 127.856 645.622 127.912 646.134 128.008C646.662 128.088 647.158 128.24 647.622 128.464C648.342 128.784 648.942 129.264 649.422 129.904C649.902 130.544 650.166 131.368 650.214 132.376H648.174C648.11 131.88 647.958 131.464 647.718 131.128C647.494 130.792 647.214 130.52 646.878 130.312C646.542 130.104 646.158 129.96 645.726 129.88C645.31 129.784 644.87 129.736 644.406 129.736ZM651.374 150.088C652.206 148.984 652.91 147.912 653.486 146.872C654.062 145.832 654.526 144.808 654.878 143.8C655.23 142.792 655.486 141.784 655.646 140.776C655.806 139.768 655.886 138.744 655.886 137.704C655.886 136.648 655.806 135.624 655.646 134.632C655.486 133.624 655.222 132.616 654.854 131.608C654.502 130.6 654.038 129.584 653.462 128.56C652.902 127.536 652.222 126.472 651.422 125.368H653.63C654.35 126.216 654.974 127.152 655.502 128.176C656.046 129.184 656.494 130.232 656.846 131.32C657.214 132.392 657.486 133.472 657.662 134.56C657.838 135.648 657.926 136.696 657.926 137.704C657.926 138.712 657.83 139.768 657.638 140.872C657.462 141.96 657.19 143.048 656.822 144.136C656.47 145.208 656.022 146.256 655.478 147.28C654.934 148.304 654.302 149.24 653.582 150.088H651.374Z" fill="#8F8F8F"/>
<path d="M299.088 655V638.032H310.488V639.928H301.176V646.288H309.312V648.208H301.176V655H299.088ZM312.975 655V638.032H315.015V655H312.975ZM323.505 653.344C324.657 653.344 325.497 653 326.025 652.312C326.569 651.608 326.841 650.632 326.841 649.384V642.352H328.881V649.48C328.881 651.4 328.417 652.824 327.489 653.752C326.577 654.68 325.249 655.144 323.505 655.144C321.761 655.144 320.433 654.68 319.521 653.752C318.625 652.824 318.177 651.4 318.177 649.48V642.352H320.217V649.384C320.217 650.632 320.489 651.608 321.033 652.312C321.577 653 322.401 653.344 323.505 653.344ZM335.245 642.352H339.133V644.152H335.245V650.728C335.245 651.096 335.261 651.44 335.293 651.76C335.341 652.064 335.421 652.336 335.533 652.576C335.661 652.8 335.837 652.984 336.061 653.128C336.301 653.256 336.621 653.328 337.021 653.344C337.389 653.344 337.709 653.28 337.981 653.152C338.269 653.024 338.509 652.872 338.701 652.696L339.589 654.184C339.173 654.536 338.741 654.784 338.293 654.928C337.845 655.072 337.349 655.144 336.805 655.144C336.117 655.144 335.541 655.048 335.077 654.856C334.613 654.648 334.221 654.352 333.901 653.968C333.629 653.6 333.445 653.168 333.349 652.672C333.253 652.176 333.205 651.616 333.205 650.992V644.152H331.141V642.352H333.205V638.56H335.245V642.352ZM344.761 642.352H348.649V644.152H344.761V650.728C344.761 651.096 344.777 651.44 344.809 651.76C344.857 652.064 344.937 652.336 345.049 652.576C345.177 652.8 345.353 652.984 345.577 653.128C345.817 653.256 346.137 653.328 346.537 653.344C346.905 653.344 347.225 653.28 347.497 653.152C347.785 653.024 348.025 652.872 348.217 652.696L349.105 654.184C348.689 654.536 348.257 654.784 347.809 654.928C347.361 655.072 346.865 655.144 346.321 655.144C345.633 655.144 345.057 655.048 344.593 654.856C344.129 654.648 343.737 654.352 343.417 653.968C343.145 653.6 342.961 653.168 342.865 652.672C342.769 652.176 342.721 651.616 342.721 650.992V644.152H340.657V642.352H342.721V638.56H344.761V642.352ZM352.669 649.432C352.717 649.992 352.829 650.512 353.005 650.992C353.197 651.456 353.453 651.864 353.773 652.216C354.093 652.568 354.485 652.848 354.949 653.056C355.429 653.248 355.981 653.344 356.605 653.344C356.909 653.344 357.221 653.32 357.541 653.272C357.877 653.208 358.189 653.112 358.477 652.984C358.765 652.84 359.021 652.656 359.245 652.432C359.469 652.208 359.637 651.936 359.749 651.616H361.837C361.693 652.224 361.445 652.752 361.093 653.2C360.757 653.648 360.349 654.016 359.869 654.304C359.405 654.592 358.885 654.808 358.309 654.952C357.733 655.08 357.149 655.144 356.557 655.144C355.549 655.144 354.669 654.984 353.917 654.664C353.181 654.344 352.565 653.904 352.069 653.344C351.573 652.768 351.205 652.088 350.965 651.304C350.725 650.504 350.605 649.632 350.605 648.688C350.605 647.744 350.733 646.88 350.989 646.096C351.261 645.296 351.645 644.608 352.141 644.032C352.637 643.456 353.245 643.008 353.965 642.688C354.685 642.368 355.541 642.208 356.533 642.208C357.541 642.208 358.413 642.408 359.149 642.808C359.885 643.208 360.477 643.736 360.925 644.392C361.373 645.032 361.685 645.728 361.861 646.48C362.053 647.232 362.133 647.928 362.101 648.568C362.101 648.712 362.093 648.856 362.077 649C362.077 649.144 362.069 649.288 362.053 649.432H352.669ZM360.037 647.656C360.005 646.584 359.669 645.712 359.029 645.04C358.389 644.368 357.533 644.032 356.461 644.032C355.869 644.032 355.349 644.128 354.901 644.32C354.453 644.512 354.077 644.776 353.773 645.112C353.469 645.448 353.229 645.84 353.053 646.288C352.877 646.72 352.765 647.176 352.717 647.656H360.037ZM364.842 655V642.352H366.81L366.906 644.32C367.37 643.584 367.962 643.048 368.682 642.712C369.402 642.376 370.218 642.208 371.13 642.208H371.778V644.128H371.034C370.282 644.128 369.642 644.256 369.114 644.512C368.586 644.752 368.154 645.088 367.818 645.52C367.498 645.936 367.258 646.432 367.098 647.008C366.954 647.584 366.882 648.192 366.882 648.832V655H364.842ZM386.768 635.368C385.92 636.472 385.208 637.544 384.632 638.584C384.056 639.608 383.592 640.632 383.24 641.656C382.888 642.664 382.632 643.672 382.472 644.68C382.328 645.688 382.256 646.712 382.256 647.752C382.256 648.808 382.336 649.84 382.496 650.848C382.656 651.84 382.912 652.84 383.264 653.848C383.632 654.856 384.096 655.872 384.656 656.896C385.232 657.92 385.92 658.984 386.72 660.088H384.512C383.792 659.24 383.16 658.304 382.616 657.28C382.088 656.272 381.64 655.232 381.272 654.16C380.92 653.072 380.656 651.984 380.48 650.896C380.304 649.808 380.216 648.76 380.216 647.752C380.216 646.744 380.304 645.696 380.48 644.608C380.672 643.504 380.944 642.416 381.296 641.344C381.664 640.256 382.12 639.2 382.664 638.176C383.208 637.152 383.84 636.216 384.56 635.368H386.768ZM388.127 638.032H394.151C395.463 638.032 396.615 638.24 397.607 638.656C398.615 639.056 399.455 639.632 400.127 640.384C400.799 641.12 401.303 642.016 401.639 643.072C401.975 644.112 402.143 645.264 402.143 646.528C402.127 647.792 401.951 648.944 401.615 649.984C401.279 651.024 400.775 651.92 400.103 652.672C399.447 653.408 398.623 653.984 397.631 654.4C396.639 654.8 395.479 655 394.151 655H388.127V638.032ZM390.215 639.928V653.104H394.007C394.871 653.104 395.695 652.976 396.479 652.72C397.279 652.448 397.959 651.976 398.519 651.304C399.031 650.712 399.407 650.016 399.647 649.216C399.887 648.4 400.007 647.504 400.007 646.528C400.007 645.52 399.887 644.624 399.647 643.84C399.407 643.056 399.047 642.376 398.567 641.8C398.087 641.224 397.479 640.768 396.743 640.432C396.007 640.096 395.135 639.928 394.127 639.928H390.215ZM413.249 653.392C412.977 653.76 412.665 654.056 412.313 654.28C411.961 654.504 411.593 654.68 411.209 654.808C410.841 654.936 410.465 655.024 410.081 655.072C409.713 655.12 409.345 655.144 408.977 655.144C408.385 655.144 407.825 655.072 407.297 654.928C406.769 654.784 406.289 654.552 405.857 654.232C405.441 653.912 405.105 653.512 404.849 653.032C404.609 652.552 404.489 652.008 404.489 651.4C404.489 650.68 404.617 650.08 404.873 649.6C405.145 649.104 405.505 648.704 405.953 648.4C406.401 648.096 406.913 647.888 407.489 647.776C408.081 647.648 408.705 647.584 409.361 647.584H413.081C413.081 646.512 412.849 645.664 412.385 645.04C411.921 644.4 411.137 644.064 410.033 644.032C409.361 644.032 408.769 644.144 408.257 644.368C407.745 644.592 407.393 644.96 407.201 645.472H405.017C405.129 644.896 405.353 644.408 405.689 644.008C406.025 643.592 406.425 643.256 406.889 643C407.353 642.728 407.857 642.528 408.401 642.4C408.945 642.272 409.489 642.208 410.033 642.208C410.977 642.208 411.769 642.368 412.409 642.688C413.065 642.992 413.593 643.4 413.993 643.912C414.393 644.408 414.673 645.016 414.833 645.736C414.993 646.456 415.073 647.264 415.073 648.16V655H413.369L413.249 653.392ZM410.849 649.288C410.465 649.288 410.017 649.288 409.505 649.288C409.009 649.288 408.529 649.344 408.065 649.456C407.601 649.552 407.225 649.752 406.937 650.056C406.665 650.36 406.529 650.76 406.529 651.256C406.529 651.624 406.601 651.936 406.745 652.192C406.889 652.448 407.081 652.664 407.321 652.84C407.577 653.016 407.865 653.144 408.185 653.224C408.505 653.304 408.833 653.344 409.169 653.344C410.369 653.344 411.313 653.056 412.001 652.48C412.705 651.888 413.065 651.032 413.081 649.912V649.288H410.849ZM418.233 655V642.352H420.201L420.297 644.32C420.761 643.584 421.353 643.048 422.073 642.712C422.793 642.376 423.609 642.208 424.521 642.208H425.169V644.128H424.425C423.673 644.128 423.033 644.256 422.505 644.512C421.977 644.752 421.545 645.088 421.209 645.52C420.889 645.936 420.649 646.432 420.489 647.008C420.345 647.584 420.273 648.192 420.273 648.832V655H418.233ZM431.105 642.352H434.489V644.152H431.105V650.704C431.105 651.568 431.257 652.208 431.561 652.624C431.881 653.024 432.521 653.224 433.481 653.224H434.417V655H433.049C431.609 655 430.585 654.672 429.977 654.016C429.369 653.36 429.065 652.328 429.065 650.92V644.152H427.001V642.352H429.065V638.584H431.105V642.352ZM434.467 660.088C435.3 658.984 436.004 657.912 436.58 656.872C437.156 655.832 437.62 654.808 437.972 653.8C438.324 652.792 438.58 651.784 438.74 650.776C438.9 649.768 438.98 648.744 438.98 647.704C438.98 646.648 438.9 645.624 438.74 644.632C438.58 643.624 438.316 642.616 437.948 641.608C437.596 640.6 437.132 639.584 436.556 638.56C435.996 637.536 435.316 636.472 434.515 635.368H436.724C437.444 636.216 438.068 637.152 438.596 638.176C439.14 639.184 439.588 640.232 439.94 641.32C440.308 642.392 440.58 643.472 440.756 644.56C440.932 645.648 441.02 646.696 441.02 647.704C441.02 648.712 440.924 649.768 440.732 650.872C440.556 651.96 440.284 653.048 439.916 654.136C439.564 655.208 439.116 656.256 438.572 657.28C438.028 658.304 437.396 659.24 436.676 660.088H434.467Z" fill="#8F8F8F"/>
<path d="M235 260.663C302.771 107.821 457.008 0.999738 636.61 0.999738C878.745 0.999738 1075 195.066 1075 434.5C1075 673.933 878.745 868 636.61 868C459.434 868 306.962 764.069 237.812 614.498" stroke="#FF3C00" stroke-width="2"/>
<path d="M132 260.663C199.771 107.821 354.008 0.999738 533.61 0.999738C775.745 0.999738 972 195.066 972 434.5C972 673.933 775.745 868 533.61 868C356.434 868 203.962 764.069 134.812 614.498" stroke="#FF3C00" stroke-width="2"/>
<path d="M23.0001 260.663C90.7714 107.821 245.008 0.999738 424.61 0.999738C666.745 0.999738 863 195.066 863 434.5C863 673.933 666.745 868 424.61 868C247.434 868 94.9623 764.069 25.8124 614.498" stroke="#FF3C00" stroke-width="2"/>
<circle cx="302" cy="714" r="5" fill="#FF3C00"/>
<circle cx="916" cy="98" r="5" fill="#FF3C00"/>
<circle cx="765" cy="707" r="5" fill="#FF3C00"/>
<circle cx="972" cy="431" r="5" fill="#FF3C00"/>
<path d="M765 663V688.5" stroke="#DADADA"/>
<rect width="190" height="37" transform="translate(585 613)" fill="white"/>
<path d="M603.856 624.736C602.864 624.736 602.016 624.912 601.312 625.264C600.608 625.616 600.032 626.104 599.584 626.728C599.136 627.336 598.808 628.056 598.6 628.888C598.392 629.704 598.288 630.584 598.288 631.528C598.288 632.472 598.4 633.352 598.624 634.168C598.848 634.984 599.184 635.704 599.632 636.328C600.096 636.936 600.68 637.416 601.384 637.768C602.104 638.12 602.96 638.296 603.952 638.296C605.648 638.296 606.92 637.848 607.768 636.952C608.264 636.44 608.616 635.888 608.824 635.296C609.032 634.704 609.136 634.048 609.136 633.328H603.568V631.432H611.128V632.848C611.128 633.312 611.088 633.792 611.008 634.288C610.928 634.784 610.808 635.272 610.648 635.752C610.488 636.216 610.28 636.664 610.024 637.096C609.784 637.512 609.496 637.888 609.16 638.224C608.52 638.832 607.76 639.312 606.88 639.664C606.016 640.016 605.032 640.192 603.928 640.192C602.6 640.192 601.448 639.976 600.472 639.544C599.512 639.112 598.704 638.52 598.048 637.768C597.408 637 596.928 636.088 596.608 635.032C596.304 633.976 596.152 632.824 596.152 631.576C596.152 630.328 596.304 629.176 596.608 628.12C596.928 627.048 597.4 626.128 598.024 625.36C598.664 624.576 599.464 623.96 600.424 623.512C601.4 623.064 602.552 622.84 603.88 622.84C605.752 622.84 607.264 623.264 608.416 624.112C609.568 624.944 610.328 626.064 610.696 627.472H608.416C608.176 626.64 607.656 625.976 606.856 625.48C606.056 624.984 605.056 624.736 603.856 624.736ZM619.449 627.208C620.457 627.208 621.329 627.368 622.065 627.688C622.801 628.008 623.417 628.456 623.913 629.032C624.425 629.608 624.801 630.296 625.041 631.096C625.297 631.88 625.425 632.744 625.425 633.688C625.425 634.632 625.297 635.504 625.041 636.304C624.801 637.088 624.425 637.768 623.913 638.344C623.417 638.904 622.793 639.344 622.041 639.664C621.289 639.984 620.409 640.144 619.401 640.144C618.393 640.144 617.513 639.984 616.761 639.664C616.025 639.344 615.401 638.904 614.889 638.344C614.393 637.768 614.017 637.088 613.761 636.304C613.521 635.504 613.401 634.632 613.401 633.688C613.401 632.744 613.521 631.88 613.761 631.096C614.017 630.296 614.393 629.608 614.889 629.032C615.401 628.456 616.041 628.008 616.809 627.688C617.577 627.368 618.457 627.208 619.449 627.208ZM619.401 638.344C620.089 638.344 620.681 638.224 621.177 637.984C621.689 637.744 622.105 637.416 622.425 637C622.761 636.568 623.001 636.072 623.145 635.512C623.305 634.952 623.385 634.344 623.385 633.688C623.385 633.048 623.305 632.448 623.145 631.888C623.001 631.312 622.761 630.816 622.425 630.4C622.105 629.968 621.689 629.632 621.177 629.392C620.681 629.152 620.089 629.032 619.401 629.032C618.713 629.032 618.121 629.152 617.625 629.392C617.129 629.632 616.713 629.968 616.377 630.4C616.057 630.816 615.817 631.312 615.657 631.888C615.513 632.448 615.441 633.048 615.441 633.688C615.441 634.344 615.513 634.952 615.657 635.512C615.817 636.072 616.057 636.568 616.377 637C616.713 637.416 617.129 637.744 617.625 637.984C618.121 638.224 618.713 638.344 619.401 638.344ZM628.155 640V627.352H630.123L630.219 629.32C630.683 628.584 631.275 628.048 631.995 627.712C632.715 627.376 633.531 627.208 634.443 627.208H635.091V629.128H634.347C633.595 629.128 632.955 629.256 632.427 629.512C631.899 629.752 631.467 630.088 631.131 630.52C630.811 630.936 630.571 631.432 630.411 632.008C630.267 632.584 630.195 633.192 630.195 633.832V640H628.155ZM638.284 622.72C638.668 622.72 638.996 622.848 639.268 623.104C639.54 623.344 639.676 623.664 639.676 624.064C639.676 624.464 639.54 624.792 639.268 625.048C638.996 625.304 638.668 625.432 638.284 625.432C637.884 625.432 637.556 625.304 637.3 625.048C637.044 624.792 636.916 624.464 636.916 624.064C636.916 623.664 637.044 623.344 637.3 623.104C637.556 622.848 637.884 622.72 638.284 622.72ZM637.276 640V627.352H639.316V640H637.276ZM642.71 640V623.032H644.75V640H642.71ZM647.96 640V623.032H650V640H647.96ZM661.538 638.392C661.266 638.76 660.954 639.056 660.602 639.28C660.25 639.504 659.882 639.68 659.498 639.808C659.13 639.936 658.754 640.024 658.37 640.072C658.002 640.12 657.634 640.144 657.266 640.144C656.674 640.144 656.114 640.072 655.586 639.928C655.058 639.784 654.578 639.552 654.146 639.232C653.73 638.912 653.394 638.512 653.138 638.032C652.898 637.552 652.778 637.008 652.778 636.4C652.778 635.68 652.906 635.08 653.162 634.6C653.434 634.104 653.794 633.704 654.242 633.4C654.69 633.096 655.202 632.888 655.778 632.776C656.37 632.648 656.994 632.584 657.65 632.584H661.37C661.37 631.512 661.138 630.664 660.674 630.04C660.21 629.4 659.426 629.064 658.322 629.032C657.65 629.032 657.058 629.144 656.546 629.368C656.034 629.592 655.682 629.96 655.49 630.472H653.306C653.418 629.896 653.642 629.408 653.978 629.008C654.314 628.592 654.714 628.256 655.178 628C655.642 627.728 656.146 627.528 656.69 627.4C657.234 627.272 657.778 627.208 658.322 627.208C659.266 627.208 660.058 627.368 660.698 627.688C661.354 627.992 661.882 628.4 662.282 628.912C662.682 629.408 662.962 630.016 663.122 630.736C663.282 631.456 663.362 632.264 663.362 633.16V640H661.658L661.538 638.392ZM659.138 634.288C658.754 634.288 658.306 634.288 657.794 634.288C657.298 634.288 656.818 634.344 656.354 634.456C655.89 634.552 655.514 634.752 655.226 635.056C654.954 635.36 654.818 635.76 654.818 636.256C654.818 636.624 654.89 636.936 655.034 637.192C655.178 637.448 655.37 637.664 655.61 637.84C655.866 638.016 656.154 638.144 656.474 638.224C656.794 638.304 657.122 638.344 657.458 638.344C658.658 638.344 659.602 638.056 660.29 637.48C660.994 636.888 661.354 636.032 661.37 634.912V634.288H659.138ZM679.495 620.368C678.647 621.472 677.935 622.544 677.359 623.584C676.783 624.608 676.319 625.632 675.967 626.656C675.615 627.664 675.359 628.672 675.199 629.68C675.055 630.688 674.983 631.712 674.983 632.752C674.983 633.808 675.063 634.84 675.223 635.848C675.383 636.84 675.639 637.84 675.991 638.848C676.359 639.856 676.823 640.872 677.383 641.896C677.959 642.92 678.647 643.984 679.447 645.088H677.239C676.519 644.24 675.887 643.304 675.343 642.28C674.815 641.272 674.367 640.232 673.999 639.16C673.647 638.072 673.383 636.984 673.207 635.896C673.031 634.808 672.943 633.76 672.943 632.752C672.943 631.744 673.031 630.696 673.207 629.608C673.399 628.504 673.671 627.416 674.023 626.344C674.391 625.256 674.847 624.2 675.391 623.176C675.935 622.152 676.567 621.216 677.287 620.368H679.495ZM687.622 624.736C686.63 624.736 685.782 624.912 685.078 625.264C684.374 625.616 683.798 626.104 683.35 626.728C682.902 627.336 682.574 628.056 682.366 628.888C682.158 629.704 682.054 630.584 682.054 631.528C682.054 632.472 682.166 633.352 682.39 634.168C682.614 634.984 682.95 635.704 683.398 636.328C683.862 636.936 684.446 637.416 685.15 637.768C685.87 638.12 686.726 638.296 687.718 638.296C689.414 638.296 690.686 637.848 691.534 636.952C692.03 636.44 692.382 635.888 692.59 635.296C692.798 634.704 692.902 634.048 692.902 633.328H687.334V631.432H694.894V632.848C694.894 633.312 694.854 633.792 694.774 634.288C694.694 634.784 694.574 635.272 694.414 635.752C694.254 636.216 694.046 636.664 693.79 637.096C693.55 637.512 693.262 637.888 692.926 638.224C692.286 638.832 691.526 639.312 690.646 639.664C689.782 640.016 688.798 640.192 687.694 640.192C686.366 640.192 685.214 639.976 684.238 639.544C683.278 639.112 682.47 638.52 681.814 637.768C681.174 637 680.694 636.088 680.374 635.032C680.07 633.976 679.918 632.824 679.918 631.576C679.918 630.328 680.07 629.176 680.374 628.12C680.694 627.048 681.166 626.128 681.79 625.36C682.43 624.576 683.23 623.96 684.19 623.512C685.166 623.064 686.318 622.84 687.646 622.84C689.518 622.84 691.03 623.264 692.182 624.112C693.334 624.944 694.094 626.064 694.462 627.472H692.182C691.942 626.64 691.422 625.976 690.622 625.48C689.822 624.984 688.822 624.736 687.622 624.736ZM703.215 627.208C704.223 627.208 705.095 627.368 705.831 627.688C706.567 628.008 707.183 628.456 707.679 629.032C708.191 629.608 708.567 630.296 708.807 631.096C709.063 631.88 709.191 632.744 709.191 633.688C709.191 634.632 709.063 635.504 708.807 636.304C708.567 637.088 708.191 637.768 707.679 638.344C707.183 638.904 706.559 639.344 705.807 639.664C705.055 639.984 704.175 640.144 703.167 640.144C702.159 640.144 701.279 639.984 700.527 639.664C699.791 639.344 699.167 638.904 698.655 638.344C698.159 637.768 697.783 637.088 697.527 636.304C697.287 635.504 697.167 634.632 697.167 633.688C697.167 632.744 697.287 631.88 697.527 631.096C697.783 630.296 698.159 629.608 698.655 629.032C699.167 628.456 699.807 628.008 700.575 627.688C701.343 627.368 702.223 627.208 703.215 627.208ZM703.167 638.344C703.855 638.344 704.447 638.224 704.943 637.984C705.455 637.744 705.871 637.416 706.191 637C706.527 636.568 706.767 636.072 706.911 635.512C707.071 634.952 707.151 634.344 707.151 633.688C707.151 633.048 707.071 632.448 706.911 631.888C706.767 631.312 706.527 630.816 706.191 630.4C705.871 629.968 705.455 629.632 704.943 629.392C704.447 629.152 703.855 629.032 703.167 629.032C702.479 629.032 701.887 629.152 701.391 629.392C700.895 629.632 700.479 629.968 700.143 630.4C699.823 630.816 699.583 631.312 699.423 631.888C699.279 632.448 699.207 633.048 699.207 633.688C699.207 634.344 699.279 634.952 699.423 635.512C699.583 636.072 699.823 636.568 700.143 637C700.479 637.416 700.895 637.744 701.391 637.984C701.887 638.224 702.479 638.344 703.167 638.344ZM711.921 640V623.032H713.961V640H711.921ZM725.499 638.392C725.227 638.76 724.915 639.056 724.563 639.28C724.211 639.504 723.843 639.68 723.459 639.808C723.091 639.936 722.715 640.024 722.331 640.072C721.963 640.12 721.595 640.144 721.227 640.144C720.635 640.144 720.075 640.072 719.547 639.928C719.019 639.784 718.539 639.552 718.107 639.232C717.691 638.912 717.355 638.512 717.099 638.032C716.859 637.552 716.739 637.008 716.739 636.4C716.739 635.68 716.867 635.08 717.123 634.6C717.395 634.104 717.755 633.704 718.203 633.4C718.651 633.096 719.163 632.888 719.739 632.776C720.331 632.648 720.955 632.584 721.611 632.584H725.331C725.331 631.512 725.099 630.664 724.635 630.04C724.171 629.4 723.387 629.064 722.283 629.032C721.611 629.032 721.019 629.144 720.507 629.368C719.995 629.592 719.643 629.96 719.451 630.472H717.267C717.379 629.896 717.603 629.408 717.939 629.008C718.275 628.592 718.675 628.256 719.139 628C719.603 627.728 720.107 627.528 720.651 627.4C721.195 627.272 721.739 627.208 722.283 627.208C723.227 627.208 724.019 627.368 724.659 627.688C725.315 627.992 725.843 628.4 726.243 628.912C726.643 629.408 726.923 630.016 727.083 630.736C727.243 631.456 727.323 632.264 727.323 633.16V640H725.619L725.499 638.392ZM723.099 634.288C722.715 634.288 722.267 634.288 721.755 634.288C721.259 634.288 720.779 634.344 720.315 634.456C719.851 634.552 719.475 634.752 719.187 635.056C718.915 635.36 718.779 635.76 718.779 636.256C718.779 636.624 718.851 636.936 718.995 637.192C719.139 637.448 719.331 637.664 719.571 637.84C719.827 638.016 720.115 638.144 720.435 638.224C720.755 638.304 721.083 638.344 721.419 638.344C722.619 638.344 723.563 638.056 724.251 637.48C724.955 636.888 725.315 636.032 725.331 634.912V634.288H723.099ZM730.483 640V627.352H732.451L732.547 629.272C732.755 628.92 733.011 628.616 733.315 628.36C733.635 628.104 733.979 627.888 734.347 627.712C734.715 627.536 735.099 627.408 735.499 627.328C735.915 627.248 736.315 627.208 736.699 627.208C737.611 627.208 738.379 627.36 739.003 627.664C739.627 627.952 740.123 628.36 740.491 628.888C740.859 629.4 741.123 630.016 741.283 630.736C741.443 631.44 741.523 632.2 741.523 633.016V640H739.483V633.568C739.483 632.976 739.443 632.408 739.363 631.864C739.299 631.32 739.155 630.84 738.931 630.424C738.723 629.992 738.419 629.648 738.019 629.392C737.619 629.136 737.083 629.008 736.411 629.008C735.771 629.008 735.195 629.168 734.683 629.488C734.171 629.792 733.763 630.152 733.459 630.568C733.091 631.096 732.843 631.68 732.715 632.32C732.587 632.944 732.523 633.576 732.523 634.216V640H730.483ZM755.943 639.904C755.943 641.696 755.463 643.104 754.503 644.128C753.543 645.152 752.095 645.664 750.159 645.664C749.519 645.664 748.903 645.592 748.311 645.448C747.735 645.304 747.207 645.072 746.727 644.752C746.263 644.448 745.863 644.056 745.527 643.576C745.207 643.112 744.983 642.552 744.855 641.896H746.967C747.063 642.264 747.223 642.568 747.447 642.808C747.687 643.064 747.959 643.264 748.263 643.408C748.567 643.568 748.895 643.68 749.247 643.744C749.599 643.808 749.943 643.84 750.279 643.84C750.919 643.84 751.471 643.736 751.935 643.528C752.399 643.336 752.775 643.064 753.063 642.712C753.351 642.36 753.559 641.936 753.687 641.44C753.831 640.96 753.903 640.432 753.903 639.856V638.104C753.487 638.84 752.895 639.368 752.127 639.688C751.359 639.992 750.559 640.144 749.727 640.144C748.767 640.128 747.935 639.96 747.231 639.64C746.527 639.304 745.951 638.848 745.503 638.272C745.055 637.696 744.719 637.024 744.495 636.256C744.287 635.472 744.183 634.624 744.183 633.712C744.183 632.8 744.295 631.952 744.519 631.168C744.743 630.368 745.087 629.68 745.551 629.104C746.015 628.512 746.599 628.048 747.303 627.712C748.007 627.376 748.847 627.208 749.823 627.208C750.559 627.208 751.303 627.344 752.055 627.616C752.807 627.888 753.423 628.328 753.903 628.936L753.999 627.352H755.943V639.904ZM749.991 629.032C749.303 629.032 748.719 629.16 748.239 629.416C747.759 629.656 747.367 629.984 747.063 630.4C746.775 630.816 746.559 631.312 746.415 631.888C746.287 632.448 746.223 633.048 746.223 633.688C746.223 634.392 746.287 635.016 746.415 635.56C746.543 636.088 746.759 636.56 747.063 636.976C747.367 637.392 747.759 637.728 748.239 637.984C748.719 638.224 749.311 638.344 750.015 638.344C750.831 638.344 751.503 638.152 752.031 637.768C752.559 637.384 752.983 636.904 753.303 636.328C753.527 635.928 753.687 635.496 753.783 635.032C753.879 634.552 753.927 634.08 753.927 633.616C753.927 633.04 753.871 632.512 753.759 632.032C753.663 631.552 753.479 631.104 753.207 630.688C752.887 630.224 752.463 629.832 751.935 629.512C751.407 629.192 750.759 629.032 749.991 629.032ZM756.819 645.088C757.651 643.984 758.355 642.912 758.931 641.872C759.507 640.832 759.971 639.808 760.323 638.8C760.675 637.792 760.931 636.784 761.091 635.776C761.251 634.768 761.331 633.744 761.331 632.704C761.331 631.648 761.251 630.624 761.091 629.632C760.931 628.624 760.667 627.616 760.299 626.608C759.947 625.6 759.483 624.584 758.907 623.56C758.347 622.536 757.667 621.472 756.867 620.368H759.075C759.795 621.216 760.419 622.152 760.947 623.176C761.491 624.184 761.939 625.232 762.291 626.32C762.659 627.392 762.931 628.472 763.107 629.56C763.283 630.648 763.371 631.696 763.371 632.704C763.371 633.712 763.275 634.768 763.083 635.872C762.907 636.96 762.635 638.048 762.267 639.136C761.915 640.208 761.467 641.256 760.923 642.28C760.379 643.304 759.747 644.24 759.027 645.088H756.819Z" fill="#8F8F8F"/>
<path d="M302 669V694.5" stroke="#DADADA"/>
<path d="M928 431H953.5" stroke="#DADADA"/>
<rect width="169" height="37" transform="translate(752 412)" fill="white"/>
<path d="M766.176 432.64V439H764.088V422.032H770.448C771.376 422.032 772.216 422.128 772.968 422.32C773.72 422.512 774.36 422.816 774.888 423.232C775.416 423.648 775.816 424.2 776.088 424.888C776.376 425.56 776.52 426.376 776.52 427.336C776.52 428.04 776.416 428.672 776.208 429.232C776 429.776 775.72 430.256 775.368 430.672C775.032 431.072 774.632 431.408 774.168 431.68C773.704 431.936 773.224 432.136 772.728 432.28L776.28 439H774L770.616 432.64H766.176ZM769.776 430.744C770.4 430.744 770.984 430.696 771.528 430.6C772.088 430.504 772.576 430.328 772.992 430.072C773.408 429.816 773.736 429.472 773.976 429.04C774.232 428.592 774.368 428 774.384 427.264C774.384 426.048 774.024 425.192 773.304 424.696C772.6 424.184 771.576 423.928 770.232 423.928H766.176V430.744H769.776ZM784.685 437.344C785.837 437.344 786.677 437 787.205 436.312C787.749 435.608 788.021 434.632 788.021 433.384V426.352H790.061V433.48C790.061 435.4 789.597 436.824 788.669 437.752C787.757 438.68 786.429 439.144 784.685 439.144C782.941 439.144 781.613 438.68 780.701 437.752C779.805 436.824 779.357 435.4 779.357 433.48V426.352H781.397V433.384C781.397 434.632 781.669 435.608 782.213 436.312C782.757 437 783.581 437.344 784.685 437.344ZM797.745 428.032C797.457 428.032 797.161 428.056 796.857 428.104C796.569 428.136 796.281 428.216 795.993 428.344C795.721 428.456 795.481 428.632 795.273 428.872C795.081 429.096 794.977 429.4 794.961 429.784C794.961 430.328 795.161 430.736 795.561 431.008C795.977 431.28 796.513 431.48 797.169 431.608C797.441 431.672 797.737 431.736 798.057 431.8C798.377 431.848 798.689 431.904 798.993 431.968C799.313 432.016 799.609 432.072 799.881 432.136C800.169 432.2 800.409 432.264 800.601 432.328C802.137 432.808 802.905 433.84 802.905 435.424C802.889 436.192 802.721 436.816 802.401 437.296C802.097 437.76 801.705 438.128 801.225 438.4C800.761 438.672 800.225 438.864 799.617 438.976C799.025 439.088 798.433 439.144 797.841 439.144C797.265 439.144 796.681 439.088 796.089 438.976C795.497 438.864 794.953 438.672 794.457 438.4C793.977 438.112 793.561 437.744 793.209 437.296C792.873 436.832 792.657 436.256 792.561 435.568H794.625C794.753 435.952 794.953 436.256 795.225 436.48C795.497 436.704 795.785 436.88 796.089 437.008C796.409 437.136 796.705 437.224 796.977 437.272C797.265 437.32 797.585 437.344 797.937 437.344C798.193 437.344 798.489 437.328 798.825 437.296C799.161 437.264 799.481 437.192 799.785 437.08C800.089 436.952 800.345 436.768 800.553 436.528C800.761 436.288 800.865 435.952 800.865 435.52C800.865 435.04 800.705 434.68 800.385 434.44C800.081 434.2 799.657 434.024 799.113 433.912C798.729 433.832 798.329 433.76 797.913 433.696C797.513 433.616 797.105 433.536 796.689 433.456C796.289 433.36 795.897 433.256 795.513 433.144C795.129 433.016 794.769 432.848 794.433 432.64C793.985 432.368 793.625 432 793.353 431.536C793.081 431.072 792.945 430.504 792.945 429.832C792.977 429.128 793.137 428.552 793.425 428.104C793.713 427.64 794.081 427.264 794.529 426.976C795.009 426.688 795.521 426.488 796.065 426.376C796.609 426.264 797.185 426.208 797.793 426.208C799.089 426.208 800.121 426.488 800.889 427.048C801.353 427.368 801.713 427.752 801.969 428.2C802.225 428.648 802.385 429.12 802.449 429.616H800.553C800.441 429.152 800.137 428.776 799.641 428.488C799.145 428.2 798.513 428.048 797.745 428.032ZM808.402 426.352H811.786V428.152H808.402V434.704C808.402 435.568 808.554 436.208 808.858 436.624C809.178 437.024 809.818 437.224 810.778 437.224H811.714V439H810.346C808.906 439 807.882 438.672 807.274 438.016C806.666 437.36 806.362 436.328 806.362 434.92V428.152H804.298V426.352H806.362V422.584H808.402V426.352ZM815.556 439.048C815.14 439.016 814.804 438.88 814.548 438.64C814.292 438.4 814.164 438.08 814.164 437.68C814.18 437.264 814.324 436.936 814.596 436.696C814.884 436.44 815.212 436.312 815.58 436.312C816.044 436.312 816.412 436.48 816.684 436.816C816.972 437.152 817.116 437.624 817.116 438.232C817.116 438.568 817.044 438.936 816.9 439.336C816.772 439.752 816.596 440.128 816.372 440.464C816.148 440.8 815.884 441.096 815.58 441.352C815.292 441.608 814.988 441.792 814.668 441.904L814.092 441.112C814.412 440.888 814.708 440.584 814.98 440.2C815.268 439.816 815.46 439.432 815.556 439.048ZM833.412 423.736C832.404 423.736 831.54 423.92 830.82 424.288C830.116 424.656 829.532 425.152 829.068 425.776C828.62 426.4 828.292 427.12 828.084 427.936C827.876 428.736 827.772 429.576 827.772 430.456C827.772 431.4 827.884 432.288 828.108 433.12C828.332 433.952 828.676 434.68 829.14 435.304C829.604 435.912 830.196 436.4 830.916 436.768C831.636 437.12 832.492 437.296 833.484 437.296C834.684 437.296 835.692 437.048 836.508 436.552C837.324 436.056 837.852 435.392 838.092 434.56H840.372C840.004 435.968 839.228 437.096 838.044 437.944C836.86 438.776 835.324 439.192 833.436 439.192C832.124 439.192 830.98 438.976 830.004 438.544C829.028 438.112 828.212 437.512 827.556 436.744C826.916 435.976 826.436 435.064 826.116 434.008C825.796 432.952 825.636 431.792 825.636 430.528C825.636 429.28 825.796 428.128 826.116 427.072C826.436 426.016 826.924 425.104 827.58 424.336C828.236 423.552 829.052 422.944 830.028 422.512C831.004 422.064 832.156 421.84 833.484 421.84C834.412 421.84 835.244 421.952 835.98 422.176C836.732 422.4 837.38 422.72 837.924 423.136C838.484 423.536 838.94 424.024 839.292 424.6C839.644 425.16 839.9 425.784 840.06 426.472H837.948C837.708 425.64 837.188 424.976 836.388 424.48C835.604 423.984 834.612 423.736 833.412 423.736ZM846.015 426.352L846.447 422.032H848.487L848.031 426.352H851.295L851.775 422.032H853.791L853.335 426.352H855.639V428.248H853.119L852.639 432.784H854.943V434.704H852.423L851.967 439H849.951L850.407 434.704H847.119L846.663 439H844.623L845.103 434.704H842.799V432.784H845.295L845.799 428.248H843.495V426.352H846.015ZM847.311 432.784H850.599L851.103 428.248H847.815L847.311 432.784ZM860.135 439.048C859.719 439.016 859.383 438.88 859.127 438.64C858.871 438.4 858.743 438.08 858.743 437.68C858.759 437.264 858.903 436.936 859.175 436.696C859.463 436.44 859.791 436.312 860.159 436.312C860.623 436.312 860.991 436.48 861.263 436.816C861.551 437.152 861.695 437.624 861.695 438.232C861.695 438.568 861.623 438.936 861.479 439.336C861.351 439.752 861.175 440.128 860.951 440.464C860.727 440.8 860.463 441.096 860.159 441.352C859.871 441.608 859.567 441.792 859.247 441.904L858.671 441.112C858.991 440.888 859.287 440.584 859.559 440.2C859.847 439.816 860.039 439.432 860.135 439.048ZM877.991 423.736C876.983 423.736 876.119 423.92 875.398 424.288C874.695 424.656 874.111 425.152 873.647 425.776C873.199 426.4 872.871 427.12 872.663 427.936C872.455 428.736 872.351 429.576 872.351 430.456C872.351 431.4 872.463 432.288 872.687 433.12C872.911 433.952 873.255 434.68 873.719 435.304C874.183 435.912 874.775 436.4 875.495 436.768C876.215 437.12 877.071 437.296 878.063 437.296C879.263 437.296 880.271 437.048 881.087 436.552C881.903 436.056 882.431 435.392 882.671 434.56H884.951C884.583 435.968 883.807 437.096 882.622 437.944C881.439 438.776 879.903 439.192 878.015 439.192C876.703 439.192 875.559 438.976 874.583 438.544C873.607 438.112 872.791 437.512 872.135 436.744C871.495 435.976 871.015 435.064 870.695 434.008C870.375 432.952 870.215 431.792 870.215 430.528C870.215 429.28 870.375 428.128 870.695 427.072C871.015 426.016 871.503 425.104 872.159 424.336C872.815 423.552 873.631 422.944 874.607 422.512C875.583 422.064 876.735 421.84 878.063 421.84C878.991 421.84 879.823 421.952 880.559 422.176C881.311 422.4 881.959 422.72 882.503 423.136C883.063 423.536 883.519 424.024 883.871 424.6C884.223 425.16 884.479 425.784 884.639 426.472H882.527C882.287 425.64 881.767 424.976 880.967 424.48C880.183 423.984 879.191 423.736 877.991 423.736ZM887.737 429.592H891.265V425.872H893.137V429.592H896.689V431.44H893.137V435.16H891.265V431.44H887.737V429.592ZM900.253 429.592H903.781V425.872H905.653V429.592H909.205V431.44H905.653V435.16H903.781V431.44H900.253V429.592Z" fill="#8F8F8F"/>
<path fill-rule="evenodd" clip-rule="evenodd" d="M13.6031 438.276C13.56 446.474 19.5709 451.361 29.1631 449.139V427.414C19.4496 424.456 13.6437 430.44 13.6031 438.276ZM29.4565 396H42.6677V458.533C30.0043 460.604 17.8759 461.917 9.19931 457.065C-1.97256 450.819 -2.8707 430.97 5.96962 422.129C10.4518 417.647 19.4752 414.492 29.1631 416.551V396.881C29.1377 396.464 29.1143 396.049 29.4565 396Z" fill="black"/>
<path fill-rule="evenodd" clip-rule="evenodd" d="M64.0999 409.798H50.8887V396H64.0999V409.798Z" fill="black"/>
<path fill-rule="evenodd" clip-rule="evenodd" d="M222.635 449.726C237.037 455.323 238.631 423.947 224.103 426.826C215.081 428.614 215.371 446.903 222.635 449.726ZM223.222 415.964C234.221 414.788 242.518 419.641 245.828 427.12C251.477 439.88 245.518 454.522 236.434 458.827C231.726 461.058 226.796 461.271 222.342 460.882C208.575 459.681 199.892 445.651 204.727 430.056C205.483 427.615 206.333 426.121 206.782 425.358C209.774 420.27 214.827 416.861 223.222 415.964Z" fill="black"/>
<path fill-rule="evenodd" clip-rule="evenodd" d="M82.302 444.735C78.6479 450.876 87.8288 452.347 93.7513 450.607V441.506C89.2007 442.141 84.021 441.845 82.302 444.735ZM105.495 459.121C94.5817 459.749 77.9967 463.466 72.0263 456.185C68.5188 451.907 68.896 443.747 72.0263 439.744C76.0717 434.572 84.9023 433.444 92.8707 432.698C93.5942 430.917 93.1063 428.019 92.2835 426.826C84.9948 424.969 77.7529 427.846 72.6138 430.055V419.78C80.3757 416.214 98.3545 412.459 103.734 420.661C106.559 424.969 105.495 432.482 105.495 439.157V459.121Z" fill="black"/>
<path fill-rule="evenodd" clip-rule="evenodd" d="M151.88 459.708H138.669V442.68C138.669 437.074 139.576 429.964 136.613 427.707C134.293 425.939 128.789 426.826 125.458 427.707V459.708H112.246V418.9C125.751 415.392 150.129 411.63 151.88 428.588C152.744 436.949 151.24 449.492 151.88 459.708Z" fill="black"/>
<path fill-rule="evenodd" clip-rule="evenodd" d="M171.552 445.616C173.775 449.213 179.795 450.561 184.763 448.258C184.49 441.387 184.394 434.339 184.469 427.12C173.052 424.103 166.247 437.036 171.552 445.616ZM204.727 417.725C203.551 421.247 201.83 424.223 200.323 427.414C198.961 427.719 197.781 426.873 197.093 427.414C196.792 441.725 200.141 461.125 194.451 471.451C191.025 477.668 184.718 481.656 175.074 482.314C168.05 482.793 162.598 481.645 157.459 479.672V467.341C163.486 470.86 178.714 473.729 183.001 466.46C184.263 464.322 184.183 462.111 184.763 458.827C182.003 458.972 179.323 460.25 175.955 460.295C162.109 460.479 153.543 449.454 156.872 434.166C158.16 428.252 161.625 423.49 166.267 420.661C175.909 414.785 190.73 415.231 204.727 417.725Z" fill="black"/>
<path fill-rule="evenodd" clip-rule="evenodd" d="M64.1002 416.786C64.0852 426.514 64.0874 433.505 64.0865 445.323C63.5252 456.938 63.6559 466.187 59.403 471.745C58.5643 472.841 56.7831 474.439 55.2927 475.561C54.0412 476.504 51.6559 478.414 50.3018 478.497C48.9368 478.581 45.4299 476.602 43.8427 475.855C41.7587 474.873 39.8321 473.57 37.6777 472.919C42.703 469.805 47.4734 467.471 49.4209 461.176C51.1146 455.701 50.889 447.769 50.889 440.038C50.889 432.404 50.923 423.529 50.923 416.789L64.1002 416.786Z" fill="black"/>
</svg>
