<svg width="80" height="80" viewBox="0 0 80 80" fill="none" xmlns="http://www.w3.org/2000/svg">
<rect width="80" height="80" rx="20" fill="#FF3C00"/>
<path d="M30.1429 50.7012L22.5238 46.554V38.0713L30.1429 33.9241L37.7619 38.0713V46.554L30.1429 50.7012ZM26.3333 44.292L30.1429 46.3655L33.9524 44.292V40.1448L30.1429 38.0713L26.3333 40.1448V44.292ZM20.619 67.6667L13 63.5195V55.0368L20.619 50.7012L28.2381 54.8483V63.331L20.619 67.6667ZM16.8095 61.2575L20.619 63.331L24.4286 61.2575V57.1103L20.619 55.0368L16.8095 57.1103V61.2575ZM39.6667 67.6667L32.0476 63.5195V55.0368L39.6667 50.8897L47.2857 55.0368V63.5195L39.6667 67.6667ZM35.8571 61.2575L39.6667 63.331L43.4762 61.2575V57.1103L39.6667 55.0368L35.8571 57.1103V61.2575ZM58.7143 67.6667L51.0952 63.5195V55.0368L58.7143 50.8897L66.3333 55.0368V63.5195L58.7143 67.6667ZM54.9048 61.2575L58.7143 63.331L62.5238 61.2575V57.1103L58.7143 55.0368L54.9048 57.1103V61.2575ZM56.0476 32.9816L51.0952 37.8828V28.8345L56.8095 25.6299V17.1471L49.1905 13L41.5714 17.1471V25.6299L47.2857 28.8345V37.6943L42.3333 32.7931L39.6667 35.6207L49.1905 45.046L58.7143 35.6207L56.0476 32.9816ZM45.381 19.4092L49.1905 17.3356L53 19.4092V23.5563L49.1905 25.6299L45.381 23.5563V19.4092Z" fill="white"/>
</svg>
