<svg width="80" height="80" viewBox="0 0 80 80" fill="none" xmlns="http://www.w3.org/2000/svg">
<rect width="80" height="80" rx="20" fill="#FF3C00"/>
<path d="M39.9167 58.6667C42.379 58.6667 44.8171 58.1817 47.092 57.2394C49.3668 56.2971 51.4338 54.916 53.1749 53.1749C54.916 51.4338 56.2971 49.3668 57.2394 47.092C58.1817 44.8171 58.6667 42.379 58.6667 39.9167C58.6667 37.4544 58.1817 35.0162 57.2394 32.7414C56.2971 30.4665 54.916 28.3995 53.1749 26.6584C51.4338 24.9173 49.3668 23.5362 47.092 22.5939C44.8171 21.6516 42.379 21.1667 39.9167 21.1667C34.9439 21.1667 30.1747 23.1421 26.6584 26.6584C23.1421 30.1747 21.1667 34.9439 21.1667 39.9167C21.1667 44.8895 23.1421 49.6586 26.6584 53.1749C30.1747 56.6912 34.9439 58.6667 39.9167 58.6667ZM62.8333 39.9167C62.8333 52.5729 52.5729 62.8333 39.9167 62.8333C27.2604 62.8333 17 52.5729 17 39.9167C17 27.2604 27.2604 17 39.9167 17C52.5729 17 62.8333 27.2604 62.8333 39.9167ZM46.1667 49.1125L37.8333 40.7792V26.375H42V39.0542L49.1125 46.1667L46.1667 49.1125Z" fill="white"/>
</svg>
