<svg width="80" height="80" viewBox="0 0 80 80" fill="none" xmlns="http://www.w3.org/2000/svg">
<rect width="80" height="80" rx="20" fill="#FF3C00"/>
<path fill-rule="evenodd" clip-rule="evenodd" d="M27.2336 19.9631C30.5385 18.7239 34.9642 18 39.75 18C44.5357 18 48.9615 18.7239 52.2664 19.9631C53.9111 20.5798 55.3869 21.3645 56.4889 22.3415C57.5885 23.3164 58.5 24.6606 58.5 26.3333C58.5 28.0061 57.5885 29.3503 56.4889 30.3251C55.3869 31.3022 53.9111 32.0868 52.2664 32.7036C48.9615 33.9428 44.5357 34.6667 39.75 34.6667C34.9642 34.6667 30.5385 33.9428 27.2336 32.7036C25.5889 32.0868 24.1131 31.3022 23.0111 30.3251C21.9115 29.3503 21 28.0061 21 26.3333C21 24.6606 21.9115 23.3164 23.0111 22.3415C24.1131 21.3645 25.5889 20.5798 27.2336 19.9631ZM25.7752 25.4593C25.188 25.9799 25.1667 26.2801 25.1667 26.3333C25.1667 26.3866 25.188 26.6867 25.7752 27.2073C26.3601 27.7258 27.3252 28.2879 28.6966 28.8022C31.424 29.8249 35.3316 30.5 39.75 30.5C44.1684 30.5 48.076 29.8249 50.8034 28.8022C52.1748 28.2879 53.1399 27.7258 53.7248 27.2073C54.312 26.6867 54.3333 26.3866 54.3333 26.3333C54.3333 26.2801 54.312 25.9799 53.7248 25.4593C53.1399 24.9408 52.1748 24.3787 50.8034 23.8645C48.076 22.8418 44.1684 22.1667 39.75 22.1667C35.3316 22.1667 31.424 22.8418 28.6966 23.8645C27.3252 24.3787 26.3601 24.9408 25.7752 25.4593Z" fill="white"/>
<path fill-rule="evenodd" clip-rule="evenodd" d="M23.0833 24.25C24.2339 24.25 25.1667 25.1827 25.1667 26.3333V38.8333C25.1667 38.8866 25.188 39.1867 25.7752 39.7073C26.3601 40.2258 27.3252 40.7879 28.6966 41.3022C31.424 42.3249 35.3316 43 39.75 43C41.888 43 43.9175 42.8408 45.7606 42.5575C46.8979 42.3827 47.9615 43.163 48.1362 44.3002C48.311 45.4375 47.5308 46.5011 46.3935 46.6758C44.3325 46.9926 42.0912 47.1667 39.75 47.1667C34.9642 47.1667 30.5385 46.4428 27.2336 45.2036C25.5889 44.5868 24.1131 43.8022 23.0111 42.8251C21.9115 41.8503 21 40.5061 21 38.8333V26.3333C21 25.1827 21.9327 24.25 23.0833 24.25ZM56.4167 24.25C57.5673 24.25 58.5 25.1827 58.5 26.3333V38.8333C58.5 39.9839 57.5673 40.9167 56.4167 40.9167C55.2661 40.9167 54.3333 39.9839 54.3333 38.8333V26.3333C54.3333 25.1827 55.2661 24.25 56.4167 24.25Z" fill="white"/>
<path fill-rule="evenodd" clip-rule="evenodd" d="M23.0833 36.75C24.2339 36.75 25.1667 37.6827 25.1667 38.8333V51.3333C25.1667 51.3866 25.188 51.6867 25.7752 52.2073C26.3601 52.7258 27.3252 53.2879 28.6966 53.8022C31.424 54.8249 35.3316 55.5 39.75 55.5C40.0791 55.5 40.4059 55.496 40.7305 55.4881C41.8807 55.4601 42.8359 56.3698 42.864 57.52C42.892 58.6703 41.9823 59.6255 40.832 59.6535C40.4733 59.6623 40.1126 59.6667 39.75 59.6667C34.9642 59.6667 30.5385 58.9428 27.2336 57.7036C25.5889 57.0868 24.1131 56.3022 23.0111 55.3251C21.9115 54.3503 21 53.0061 21 51.3333V38.8333C21 37.6827 21.9327 36.75 23.0833 36.75ZM54.3333 45.0833C55.4839 45.0833 56.4167 46.0161 56.4167 47.1667V51.3333H60.5833C61.7339 51.3333 62.6667 52.2661 62.6667 53.4167C62.6667 54.5673 61.7339 55.5 60.5833 55.5H56.4167V59.6667C56.4167 60.8173 55.4839 61.75 54.3333 61.75C53.1827 61.75 52.25 60.8173 52.25 59.6667V55.5H48.0833C46.9327 55.5 46 54.5673 46 53.4167C46 52.2661 46.9327 51.3333 48.0833 51.3333H52.25V47.1667C52.25 46.0161 53.1827 45.0833 54.3333 45.0833Z" fill="white"/>
</svg>
