<svg width="80" height="80" viewBox="0 0 80 80" fill="none" xmlns="http://www.w3.org/2000/svg">
<rect width="80" height="80" rx="20" fill="#FF3C00"/>
<path fill-rule="evenodd" clip-rule="evenodd" d="M27.375 24.6875H52.375C53.6182 24.6875 54.8105 25.1814 55.6896 26.0604C56.5686 26.9395 57.0625 28.1318 57.0625 29.375V41.875C57.0625 43.1182 56.5686 44.3105 55.6896 45.1896C54.8105 46.0686 53.6182 46.5625 52.375 46.5625H27.375C26.1318 46.5625 24.9395 46.0686 24.0604 45.1896C23.1814 44.3105 22.6875 43.1182 22.6875 41.875V38.75H29.7188C30.0526 38.7499 30.3825 38.6784 30.6864 38.5404C30.9904 38.4025 31.2614 38.2012 31.4813 37.95L34.7844 34.175L39.4062 42.2562C39.5991 42.5928 39.8726 42.8762 40.202 43.0811C40.5314 43.286 40.9066 43.4059 41.2937 43.43C41.6809 43.4542 42.068 43.3819 42.4204 43.2195C42.7727 43.0572 43.0793 42.81 43.3125 42.5L47.2969 37.1875H51.5938C52.2154 37.1875 52.8115 36.9406 53.251 36.501C53.6906 36.0615 53.9375 35.4654 53.9375 34.8438C53.9375 34.2221 53.6906 33.626 53.251 33.1865C52.8115 32.7469 52.2154 32.5 51.5938 32.5H46.125C45.7611 32.5 45.4023 32.5847 45.0768 32.7474C44.7514 32.9102 44.4683 33.1464 44.25 33.4375L41.7031 36.8344L37.2219 28.9906C37.036 28.667 36.7755 28.3925 36.4621 28.1899C36.1486 27.9873 35.7914 27.8624 35.42 27.8257C35.0486 27.789 34.6738 27.8416 34.3268 27.979C33.9798 28.1164 33.6706 28.3346 33.425 28.6156L28.6562 34.0625H22.6875V29.375C22.6875 28.1318 23.1814 26.9395 24.0604 26.0604C24.9395 25.1814 26.1318 24.6875 27.375 24.6875ZM18 36.4062V41.875C18 44.3614 18.9877 46.746 20.7459 48.5041C22.504 50.2623 24.8886 51.25 27.375 51.25H37.5312V55.9375H29.7188C29.0971 55.9375 28.501 56.1844 28.0615 56.624C27.6219 57.0635 27.375 57.6596 27.375 58.2812C27.375 58.9029 27.6219 59.499 28.0615 59.9385C28.501 60.3781 29.0971 60.625 29.7188 60.625H50.0312C50.6529 60.625 51.249 60.3781 51.6885 59.9385C52.1281 59.499 52.375 58.9029 52.375 58.2812C52.375 57.6596 52.1281 57.0635 51.6885 56.624C51.249 56.1844 50.6529 55.9375 50.0312 55.9375H42.2188V51.25H52.375C54.8614 51.25 57.246 50.2623 59.0041 48.5041C60.7623 46.746 61.75 44.3614 61.75 41.875V29.375C61.75 26.8886 60.7623 24.504 59.0041 22.7459C57.246 20.9877 54.8614 20 52.375 20H27.375C24.8886 20 22.504 20.9877 20.7459 22.7459C18.9877 24.504 18 26.8886 18 29.375V36.4062Z" fill="white"/>
</svg>
