<svg width="80" height="80" viewBox="0 0 80 80" fill="none" xmlns="http://www.w3.org/2000/svg">
<rect width="80" height="80" rx="20" fill="#FF3C00"/>
<path d="M59.5124 51.7441C57.948 50.1786 56.1201 48.9008 54.1124 47.9692C56.9436 45.6756 58.7499 42.1757 58.7499 38.2508C58.7499 31.326 52.9749 25.6449 46.05 25.7512C39.2313 25.8574 33.7375 31.4135 33.7375 38.2508C33.7375 42.1757 35.55 45.6756 38.375 47.9692C36.367 48.9001 34.539 50.178 32.975 51.7441C29.5626 55.1628 27.6251 59.6752 27.5001 64.4875C27.4984 64.5542 27.5101 64.6206 27.5345 64.6827C27.5589 64.7448 27.5954 64.8014 27.642 64.8492C27.6886 64.8969 27.7443 64.9349 27.8058 64.9608C27.8673 64.9867 27.9333 65 28.0001 65H31.5001C31.7688 65 31.9938 64.7875 32 64.5188C32.1188 60.8939 33.5875 57.5002 36.1688 54.9253C37.4896 53.5974 39.0608 52.5447 40.7912 51.8281C42.5216 51.1115 44.377 50.7452 46.25 50.7504C50.0562 50.7504 53.6374 52.2316 56.3311 54.9253C58.9061 57.5002 60.3749 60.8939 60.4999 64.5188C60.5061 64.7875 60.7311 65 60.9999 65H64.4998C64.5666 65 64.6326 64.9867 64.6941 64.9608C64.7556 64.9349 64.8113 64.8969 64.8579 64.8492C64.9045 64.8014 64.9411 64.7448 64.9654 64.6827C64.9898 64.6206 65.0015 64.5542 64.9998 64.4875C64.8748 59.6752 62.9374 55.1628 59.5124 51.7441ZM46.25 46.2506C44.1125 46.2506 42.1 45.4193 40.5937 43.9069C39.8378 43.1569 39.2407 42.2624 38.8381 41.2767C38.4354 40.291 38.2354 39.2342 38.25 38.1695C38.2688 36.1196 39.0875 34.1384 40.5187 32.6697C42.0187 31.1322 44.025 30.276 46.1687 30.251C48.2874 30.2323 50.3437 31.0572 51.8562 32.5385C53.4062 34.0572 54.2562 36.0883 54.2562 38.2508C54.2562 40.3882 53.4249 42.3944 51.9124 43.9069C51.1704 44.6524 50.2879 45.2435 49.3159 45.6458C48.344 46.0481 47.3019 46.2536 46.25 46.2506ZM30.5938 39.9007C30.5376 39.357 30.5063 38.807 30.5063 38.2508C30.5063 37.2571 30.6001 36.2883 30.7751 35.3446C30.8188 35.1196 30.7001 34.8884 30.4938 34.7946C29.6438 34.4134 28.8626 33.8884 28.1876 33.2259C27.3922 32.4548 26.7663 31.5262 26.3499 30.4997C25.9334 29.4731 25.7355 28.3709 25.7688 27.2636C25.8251 25.2574 26.6313 23.3512 28.0376 21.9138C29.5813 20.3326 31.6563 19.4701 33.8625 19.4951C35.8563 19.5138 37.7813 20.2826 39.2375 21.645C39.7313 22.1075 40.1562 22.62 40.5125 23.17C40.6375 23.3637 40.8812 23.445 41.0937 23.37C42.1937 22.9887 43.3562 22.72 44.55 22.595C44.9 22.5575 45.1 22.1825 44.9437 21.87C42.9125 17.8514 38.7625 15.0765 33.9625 15.0015C27.0313 14.8952 21.2564 20.5763 21.2564 27.4949C21.2564 31.4197 23.0626 34.9196 25.8938 37.2133C23.9064 38.132 22.0751 39.4008 20.4876 40.9882C17.0626 44.4069 15.1252 48.9192 15.0002 53.7378C14.9985 53.8045 15.0102 53.8709 15.0346 53.933C15.0589 53.9951 15.0955 54.0517 15.1421 54.0995C15.1887 54.1472 15.2444 54.1852 15.3059 54.2111C15.3674 54.237 15.4334 54.2503 15.5002 54.2503H19.0064C19.2751 54.2503 19.5001 54.0378 19.5064 53.7691C19.6251 50.1442 21.0939 46.7505 23.6751 44.1756C25.5126 42.3382 27.7626 41.0632 30.2188 40.4445C30.4626 40.382 30.6251 40.1507 30.5938 39.9007Z" fill="white"/>
</svg>
