<svg width="25" height="12" viewBox="0 0 25 12" fill="none" xmlns="http://www.w3.org/2000/svg">
<path d="M19.3182 10.3636L6.25 10.3636C5.04447 10.3636 3.88832 9.9039 3.03588 9.08556C2.18344 8.26722 1.70455 7.15731 1.70455 6C1.70455 4.84269 2.18344 3.73278 3.03588 2.91444C3.88832 2.0961 5.04447 1.63636 6.25 1.63636L20.4545 1.63636C21.208 1.63636 21.9306 1.9237 22.4634 2.43516C22.9961 2.94663 23.2955 3.64032 23.2955 4.36364C23.2955 5.08695 22.9961 5.78065 22.4634 6.29211C21.9306 6.80357 21.208 7.09091 20.4545 7.09091L8.52273 7.09091C8.22135 7.09091 7.93231 6.97597 7.7192 6.77139C7.50609 6.5668 7.38636 6.28933 7.38636 6C7.38636 5.71067 7.50609 5.4332 7.7192 5.22861C7.93231 5.02403 8.22135 4.90909 8.52273 4.90909L19.3182 4.90909V3.27273L8.52273 3.27273C7.76927 3.27273 7.04667 3.56006 6.5139 4.07153C5.98113 4.58299 5.68182 5.27668 5.68182 6C5.68182 6.72332 5.98113 7.41701 6.5139 7.92847C7.04667 8.43994 7.76927 8.72727 8.52273 8.72727L20.4545 8.72727C21.6601 8.72727 22.8162 8.26753 23.6687 7.44919C24.5211 6.63085 25 5.52095 25 4.36364C25 3.20633 24.5211 2.09642 23.6687 1.27808C22.8162 0.459739 21.6601 0 20.4545 0L6.25 0C4.5924 0 3.00269 0.632141 1.83058 1.75736C0.65848 2.88258 0 4.4087 0 6C0 7.5913 0.65848 9.11742 1.83058 10.2426C3.00269 11.3679 4.5924 12 6.25 12L19.3182 12V10.3636Z" fill="black"/>
</svg>
