<svg width="30" height="31" viewBox="0 0 30 31" fill="none" xmlns="http://www.w3.org/2000/svg">
<path d="M15 0.689941C6.71323 0.689941 0 7.40413 0 15.6899C0 23.9757 6.71419 30.6899 15 30.6899C23.2868 30.6899 30 23.9757 30 15.6899C30 7.40413 23.2858 0.689941 15 0.689941ZM22.3674 10.9664L19.9055 22.5677C19.7235 23.3903 19.2339 23.5896 18.5506 23.2025L14.8006 20.4387L12.9919 22.1806C12.7926 22.3799 12.6232 22.5493 12.2361 22.5493L12.5023 18.7325L19.4516 12.4538C19.7545 12.1877 19.3848 12.0367 18.9852 12.3028L10.3965 17.7096L6.69484 16.5541C5.89065 16.3006 5.87226 15.7499 6.86419 15.3628L21.3261 9.78575C21.9977 9.54381 22.5842 9.9493 22.3665 10.9654L22.3674 10.9664Z" fill="#DADADA"/>
</svg>
