<svg width="31" height="31" viewBox="0 0 31 31" fill="none" xmlns="http://www.w3.org/2000/svg">
<path fill-rule="evenodd" clip-rule="evenodd" d="M31 15.51C31 14.2265 30.5493 12.992 29.7361 12.0024C29.2364 11.4047 28.629 10.9148 27.9333 10.5719C28.0607 10.1114 28.1293 9.64114 28.1391 9.17085C28.1587 8.19108 27.9137 7.2309 27.4336 6.3785C26.9535 5.5261 26.2579 4.82066 25.4153 4.32098C24.8862 4.01725 24.318 3.8017 23.7301 3.67433C23.5243 2.82193 23.0932 2.02831 22.4564 1.40126C21.555 0.499867 20.3401 0.000183105 19.0664 0.000183105C18.4295 0.000183105 17.8025 0.127554 17.2342 0.362699C16.6561 0.597844 16.1271 0.950562 15.6764 1.40126C15.6176 1.46004 15.5588 1.52863 15.5 1.58741C15.4412 1.51883 15.3824 1.46004 15.3236 1.40126C14.8729 0.950562 14.3439 0.597844 13.7658 0.362699C13.1877 0.127554 12.5705 0.000183105 11.9336 0.000183105C10.6599 0.000183105 9.44501 0.509665 8.54362 1.40126C7.91656 2.02831 7.47566 2.82193 7.26991 3.67433C6.68205 3.7919 6.10398 4.00745 5.5847 4.32098C4.7421 4.81087 4.04646 5.5261 3.56637 6.3785C3.08628 7.2309 2.84134 8.19108 2.86094 9.17085C2.86094 9.65094 2.93932 10.1212 3.06669 10.5719C2.38085 10.9148 1.76359 11.3949 1.26391 12.0024C0.450695 12.992 0 14.2265 0 15.51C0 16.7935 0.450695 18.028 1.26391 19.0176C1.76359 19.6152 2.37105 20.1051 3.06669 20.448C3.06669 20.4578 3.06669 20.4774 3.06669 20.4872C3.0079 20.7126 2.95891 20.9379 2.92952 21.1633C2.91972 21.2416 2.91972 21.3102 2.90992 21.3886C2.89033 21.5454 2.87073 21.7021 2.87073 21.8589C2.87073 21.8785 2.87073 21.8883 2.87073 21.9079C2.87073 21.9177 2.87073 21.9373 2.87073 21.9471C2.87073 21.9765 2.87073 22.0157 2.87073 22.0451C2.87073 22.3292 2.90992 22.6133 2.95891 22.8975C2.96871 22.9758 2.98831 23.0444 2.9981 23.1228C3.06669 23.4363 3.15487 23.7401 3.27244 24.034C3.28224 24.0634 3.30183 24.0928 3.32143 24.132C3.39981 24.3083 3.47819 24.4847 3.57617 24.6513C3.62516 24.7296 3.68394 24.808 3.73293 24.8864C3.77212 24.955 3.82111 25.0236 3.8603 25.0824C4.04646 25.3469 4.24241 25.6016 4.46776 25.827C4.46776 25.827 4.46776 25.827 4.46776 25.8368C4.50695 25.876 4.54614 25.9054 4.58533 25.9348C4.7323 26.0719 4.87927 26.2091 5.03603 26.3267C5.11441 26.3855 5.19279 26.4344 5.27118 26.4834C5.37895 26.552 5.47693 26.6304 5.5847 26.6892C5.6141 26.7088 5.64349 26.7186 5.67288 26.7284C5.83944 26.8264 6.0158 26.9047 6.19216 26.9733C6.28034 27.0125 6.35872 27.0517 6.4469 27.0909C6.71144 27.1889 6.98578 27.2673 7.26991 27.326C7.3189 27.5416 7.38748 27.7473 7.46587 27.9531C7.70101 28.5703 8.07332 29.1288 8.54362 29.5991C9.44501 30.5005 10.6599 31.0002 11.9336 31.0002C12.5705 31.0002 13.1975 30.8728 13.7658 30.6377C14.3439 30.4025 14.8729 30.0498 15.3236 29.5991C15.3824 29.5403 15.4412 29.4717 15.5 29.413C15.5588 29.4815 15.6176 29.5403 15.6764 29.5991C16.1271 30.0498 16.6561 30.4025 17.2342 30.6377C17.8123 30.8728 18.4295 31.0002 19.0664 31.0002C20.3401 31.0002 21.555 30.4907 22.4564 29.5991C22.9267 29.1288 23.299 28.5606 23.5341 27.9531C23.6125 27.7473 23.6811 27.5416 23.7301 27.326C24.0142 27.2673 24.2886 27.1889 24.5531 27.0909C24.6413 27.0615 24.7197 27.0125 24.8078 26.9733C24.9842 26.8949 25.1606 26.8166 25.3271 26.7284C25.3565 26.7088 25.3859 26.699 25.4153 26.6892C25.5231 26.6304 25.621 26.552 25.7288 26.4834C25.8072 26.4344 25.8856 26.3855 25.964 26.3267C26.1207 26.2091 26.2775 26.0719 26.4147 25.9348C26.4539 25.8956 26.493 25.8662 26.5322 25.8368C26.5322 25.8368 26.5322 25.8368 26.5322 25.827C26.7576 25.6016 26.9535 25.3469 27.1397 25.0824C27.1887 25.0138 27.2279 24.9452 27.2671 24.8864C27.3161 24.808 27.3748 24.7296 27.4238 24.6513C27.5218 24.4847 27.6002 24.3083 27.6786 24.132C27.6884 24.1026 27.708 24.0732 27.7276 24.034C27.8451 23.7401 27.9333 23.4363 28.0019 23.1228C28.0215 23.0444 28.0313 22.9758 28.0411 22.8975C28.0901 22.6133 28.1195 22.3292 28.1293 22.0451C28.1293 22.0157 28.1293 21.9765 28.1293 21.9471C28.1293 21.9373 28.1293 21.9177 28.1293 21.9079C28.1293 21.8883 28.1293 21.8785 28.1293 21.8589C28.1293 21.7021 28.1097 21.5454 28.0901 21.3886C28.0901 21.3102 28.0901 21.2416 28.0705 21.1633C28.0411 20.9379 27.9921 20.7028 27.9333 20.4872C27.9333 20.4774 27.9333 20.4578 27.9333 20.448C28.6192 20.1051 29.2364 19.625 29.7361 19.0176C30.5493 18.028 31 16.7935 31 15.51ZM27.8451 17.4597C27.3944 18.0084 26.7576 18.3807 26.0619 18.5179C25.67 18.5963 25.3369 18.8608 25.1704 19.2233C25.0038 19.5858 25.0332 20.0071 25.2389 20.3501C25.5231 20.8106 25.67 21.3494 25.6798 21.8883C25.6798 22.4272 25.5525 22.966 25.2879 23.4363C25.0234 23.9066 24.6315 24.2985 24.1612 24.5729C23.6909 24.8472 23.1618 24.9942 22.6131 24.9942C22.2898 24.9942 21.9763 25.1215 21.7509 25.3567C21.5256 25.582 21.3884 25.8956 21.3884 26.2189C21.3884 26.8459 21.1435 27.4338 20.7026 27.8747C20.2617 28.3156 19.664 28.5605 19.0468 28.5605C18.4295 28.5605 17.8319 28.3156 17.391 27.8747C16.9501 27.4338 16.7051 26.8362 16.7051 26.2189C16.7051 25.5429 16.1564 24.9942 15.4804 24.9942C14.8044 24.9942 14.2557 25.5429 14.2557 26.2189C14.2557 26.8459 14.0107 27.4338 13.5698 27.8747C13.129 28.3156 12.5313 28.5605 11.914 28.5605C11.2968 28.5605 10.6991 28.3156 10.2582 27.8747C9.81732 27.4338 9.57238 26.8362 9.57238 26.2189C9.57238 25.5429 9.0237 24.9942 8.34766 24.9942C7.53445 24.9942 6.76043 24.6709 6.18236 24.0928C5.6043 23.5147 5.28097 22.7407 5.28097 21.9275C5.28097 21.369 5.43774 20.8203 5.72187 20.3403C5.92762 19.9973 5.95702 19.576 5.79045 19.2135C5.62389 18.851 5.30057 18.5865 4.89886 18.5081C4.20322 18.3709 3.56637 17.9986 3.11568 17.4499C2.66498 16.9013 2.41024 16.2154 2.41024 15.5002C2.41024 14.7849 2.65518 14.0991 3.11568 13.5504C3.56637 13.0018 4.20322 12.6294 4.89886 12.4923C5.29077 12.4139 5.62389 12.1494 5.79045 11.7868C5.95702 11.4243 5.92762 11.003 5.72187 10.6601C5.43774 10.1996 5.29077 9.66074 5.28097 9.12187C5.28097 8.58299 5.40834 8.04412 5.67288 7.57382C5.93742 7.10353 6.32933 6.71162 6.79962 6.43729C7.26991 6.16295 7.79899 6.01599 8.34766 6.01599C8.67099 6.01599 8.98451 5.88862 9.20986 5.65347C9.43521 5.42812 9.57238 5.11459 9.57238 4.79127C9.57238 4.16422 9.81732 3.57635 10.2582 3.13545C10.6991 2.69456 11.2968 2.44961 11.914 2.44961C12.5313 2.44961 13.129 2.69456 13.5698 3.13545C14.0107 3.57635 14.2557 4.17401 14.2557 4.79127C14.2557 5.46731 14.8044 6.01599 15.4804 6.01599C16.1564 6.01599 16.7051 5.46731 16.7051 4.79127C16.7051 4.16422 16.9501 3.57635 17.391 3.13545C17.8319 2.69456 18.4295 2.44961 19.0468 2.44961C19.664 2.44961 20.2617 2.69456 20.7026 3.13545C21.1435 3.57635 21.3884 4.17401 21.3884 4.79127C21.3884 5.11459 21.5158 5.42812 21.7509 5.65347C21.9861 5.87882 22.2898 6.01599 22.6131 6.01599C23.152 6.01599 23.6909 6.16295 24.1612 6.43729C24.6315 6.71162 25.0136 7.10353 25.2879 7.57382C25.5525 8.04412 25.6896 8.58299 25.6798 9.12187C25.6798 9.66074 25.5231 10.1996 25.2389 10.6601C25.0332 11.003 25.0038 11.4243 25.1704 11.7868C25.3369 12.1494 25.6602 12.4139 26.0619 12.4923C26.7576 12.6294 27.3944 13.0018 27.8451 13.5504C28.2958 14.0991 28.5506 14.7849 28.5506 15.5002C28.5506 16.2154 28.3056 16.9013 27.8451 17.4499V17.4597Z" fill="#FF3C00"/>
</svg>
