<svg width="33" height="33" viewBox="0 0 33 33" fill="none" xmlns="http://www.w3.org/2000/svg">
<path fill-rule="evenodd" clip-rule="evenodd" d="M16.5 3C16.0204 3 15.6316 3.3888 15.6316 3.86842C15.6316 4.34816 16.0204 4.73686 16.4999 4.73686C16.9796 4.73686 17.3685 4.34795 17.3685 3.86842C17.3685 3.3888 16.9797 3 16.5 3ZM12.6466 3.52563C12.8201 1.54973 14.4791 0 16.5 0C18.5211 0 20.1801 1.5498 20.3535 3.52578L29.8669 8.87686C30.3392 9.14253 30.6315 9.64231 30.6315 10.1842V20.8279C32.023 21.4138 33.0001 22.7902 33.0001 24.3948C33.0001 26.5313 31.2681 28.2632 29.1317 28.2632C28.2376 28.2632 27.4143 27.9599 26.7592 27.4505L17.2353 32.8074C16.7787 33.0642 16.2212 33.0642 15.7646 32.8074L6.24079 27.4506C5.58569 27.9599 4.76247 28.2632 3.86842 28.2632C1.73195 28.2632 0 26.5313 0 24.3948C0 22.7903 0.976838 21.4138 2.36836 20.8279V10.1842C2.36836 9.64231 2.66066 9.14253 3.13299 8.87686L12.6466 3.52563ZM13.6016 6.43049L5.36836 11.0615V20.8279C5.60747 20.9286 5.83435 21.0526 6.04612 21.1971L10.2631 18.7874V14.5263C10.2631 13.9928 10.5465 13.4995 11.0073 13.2307L14.9999 10.9016V7.43529C14.4606 7.2082 13.9836 6.86235 13.6016 6.43049ZM17.9999 7.4353V10.9016L21.9926 13.2307C22.4534 13.4995 22.7368 13.9928 22.7368 14.5263V18.7874L26.9538 21.1971C27.1655 21.0526 27.3924 20.9286 27.6315 20.8279V11.0615L19.3984 6.43055C19.0163 6.86239 18.5393 7.20822 17.9999 7.4353ZM25.3219 23.7199L21.5863 21.5853L17.2557 24.1115C16.7887 24.3839 16.2112 24.3839 15.7441 24.1115L11.4135 21.5853L7.67814 23.7198C7.71672 23.939 7.73684 24.1646 7.73684 24.3948C7.73684 24.544 7.72839 24.6913 7.71194 24.8361L16.4999 29.779L25.2881 24.836C25.2717 24.6912 25.2633 24.544 25.2633 24.3948C25.2633 24.1646 25.2834 23.9391 25.3219 23.7199ZM13.2631 19.1911L16.4999 21.0792L19.7368 19.1911V15.3879L16.4999 13.4997L13.2631 15.3879V19.1911ZM3.86836 23.5263C3.38886 23.5263 3 23.9151 3 24.3948C3 24.8744 3.3888 25.2632 3.86842 25.2632C4.34803 25.2632 4.73684 24.8744 4.73684 24.3948C4.73684 23.9152 4.34796 23.5263 3.86836 23.5263ZM29.1315 23.5263C28.6521 23.5263 28.2633 23.915 28.2633 24.3948C28.2633 24.8744 28.6521 25.2632 29.1317 25.2632C29.6113 25.2632 30.0001 24.8744 30.0001 24.3948C30.0001 23.9153 29.6112 23.5263 29.1315 23.5263Z" fill="#FF3C00"/>
</svg>
