<svg width="30" height="31" viewBox="0 0 30 31" fill="none" xmlns="http://www.w3.org/2000/svg">
<path d="M26.6667 0.689941C27.5507 0.689941 28.3986 1.04113 29.0237 1.66625C29.6488 2.29137 30 3.13922 30 4.02327V27.3566C30 28.2407 29.6488 29.0885 29.0237 29.7136C28.3986 30.3388 27.5507 30.6899 26.6667 30.6899H3.33333C2.44928 30.6899 1.60143 30.3388 0.976311 29.7136C0.351189 29.0885 0 28.2407 0 27.3566V4.02327C0 3.13922 0.351189 2.29137 0.976311 1.66625C1.60143 1.04113 2.44928 0.689941 3.33333 0.689941H26.6667ZM25.8333 26.5233V17.6899C25.8333 16.2489 25.2609 14.8669 24.2419 13.848C23.223 12.829 21.841 12.2566 20.4 12.2566C18.9833 12.2566 17.3333 13.1233 16.5333 14.4233V12.5733H11.8833V26.5233H16.5333V18.3066C16.5333 17.0233 17.5667 15.9733 18.85 15.9733C19.4688 15.9733 20.0623 16.2191 20.4999 16.6567C20.9375 17.0943 21.1833 17.6878 21.1833 18.3066V26.5233H25.8333ZM6.46667 9.95661C7.20927 9.95661 7.92146 9.66161 8.44657 9.13651C8.97167 8.61141 9.26667 7.89921 9.26667 7.15661C9.26667 5.60661 8.01667 4.33994 6.46667 4.33994C5.71964 4.33994 5.00321 4.6367 4.47498 5.16492C3.94675 5.69315 3.65 6.40958 3.65 7.15661C3.65 8.70661 4.91667 9.95661 6.46667 9.95661ZM8.78333 26.5233V12.5733H4.16667V26.5233H8.78333Z" fill="#DADADA"/>
</svg>
