<svg width="30" height="33" viewBox="0 0 30 33" fill="none" xmlns="http://www.w3.org/2000/svg">
<path fill-rule="evenodd" clip-rule="evenodd" d="M4.83333 3C4.3471 3 3.88079 3.19315 3.53697 3.53697C3.19315 3.88079 3 4.3471 3 4.83333V28.1667C3 28.6529 3.19315 29.1192 3.53697 29.463C3.88079 29.8068 4.34711 30 4.83333 30H10.6667C11.4951 30 12.1667 30.6716 12.1667 31.5C12.1667 32.3284 11.4951 33 10.6667 33H4.83333C3.55145 33 2.32207 32.4908 1.41565 31.5843C0.509225 30.6779 0 29.4485 0 28.1667V4.83333C0 3.55145 0.509224 2.32208 1.41565 1.41565C2.32208 0.509224 3.55145 0 4.83333 0H18.1667C19.4485 0 20.6779 0.509224 21.5843 1.41565C22.4908 2.32208 23 3.55145 23 4.83333V18.1667C23 18.9951 22.3284 19.6667 21.5 19.6667C20.6716 19.6667 20 18.9951 20 18.1667V4.83333C20 4.3471 19.8068 3.88079 19.463 3.53697C19.1192 3.19315 18.6529 3 18.1667 3H14.6575C14.6636 3.05472 14.6667 3.11033 14.6667 3.16667C14.6667 3.99509 13.9951 4.66667 13.1667 4.66667H9.83333C9.0049 4.66667 8.33333 3.99509 8.33333 3.16667C8.33333 3.11033 8.33644 3.05472 8.34249 3H4.83333ZM11.5 23.3333C12.3284 23.3333 13 24.0049 13 24.8333V24.85C13 25.6784 12.3284 26.35 11.5 26.35C10.6716 26.35 10 25.6784 10 24.85V24.8333C10 24.0049 10.6716 23.3333 11.5 23.3333ZM18.7727 23.7727C19.3585 23.1869 20.3082 23.1869 20.894 23.7727C21.4798 24.3585 21.4798 25.3082 20.894 25.894L18.6213 28.1667L20.894 30.4393C21.4798 31.0251 21.4798 31.9749 20.894 32.5607C20.3082 33.1464 19.3585 33.1464 18.7727 32.5607L15.4393 29.2273C14.8536 28.6415 14.8536 27.6918 15.4393 27.106L18.7727 23.7727ZM23.7727 23.7727C24.3585 23.1869 25.3082 23.1869 25.894 23.7727L29.2273 27.106C29.8131 27.6918 29.8131 28.6415 29.2273 29.2273L25.894 32.5607C25.3082 33.1464 24.3585 33.1464 23.7727 32.5607C23.1869 31.9749 23.1869 31.0251 23.7727 30.4393L26.0453 28.1667L23.7727 25.894C23.1869 25.3082 23.1869 24.3585 23.7727 23.7727Z" fill="#FF3C00"/>
</svg>
