<svg width="30" height="31" viewBox="0 0 30 31" fill="none" xmlns="http://www.w3.org/2000/svg">
<path d="M2.1 2.78994C3.97364e-07 4.90994 0 8.29994 0 15.0899V16.2899C0 23.0699 3.97364e-07 26.4599 2.1 28.5899C4.22 30.6899 7.61 30.6899 14.4 30.6899H15.6C22.38 30.6899 25.77 30.6899 27.9 28.5899C30 26.4699 30 23.0799 30 16.2899V15.0899C30 8.30994 30 4.91994 27.9 2.78994C25.78 0.689942 22.39 0.689941 15.6 0.689941H14.4C7.62 0.689941 4.23 0.689942 2.1 2.78994ZM5.06 9.81994H8.5C8.61 15.5399 11.13 17.9599 13.13 18.4599V9.81994H16.36V14.7499C18.33 14.5399 20.41 12.2899 21.11 9.80994H24.33C24.0673 11.0936 23.5427 12.3094 22.7891 13.3813C22.0355 14.4532 21.069 15.3583 19.95 16.0399C21.1991 16.6614 22.3021 17.5407 23.1864 18.6197C24.0707 19.6988 24.7161 20.9531 25.08 22.2999H21.53C20.77 19.9299 18.87 18.0899 16.36 17.8399V22.2999H15.96C9.12 22.2999 5.22 17.6199 5.06 9.81994Z" fill="#DADADA"/>
</svg>
